<?xml version="1.0" standalone="no"?><!DOCTYPE svg PUBLIC "-//W3C//DTD SVG 1.1//EN" "http://www.w3.org/Graphics/SVG/1.1/DTD/svg11.dtd"><svg t="1578471576791" class="icon" viewBox="0 0 1181 1024" version="1.1" xmlns="http://www.w3.org/2000/svg" p-id="6219" width="230.6640625" height="200" xmlns:xlink="http://www.w3.org/1999/xlink"><defs><style type="text/css"></style></defs><path d="M105.52988347 300.89164759h337.42728427c31.14713348 0 56.36148023 25.21434674 56.36148023 56.36148024 0 31.14713348-25.21434674 56.36148023-56.36148023 56.36148023H105.52988347c-31.14713348 0-56.36148023-25.21434674-56.36148161-56.36148023 0-31.39433299 25.21434674-56.36148023 56.36148161-56.36148024zM105.52988347 525.84317089h112.47576096c31.14713348 0 56.36148023 25.21434674 56.36148023 56.36148025 0 31.14713348-25.21434674 56.36148023-56.36148023 56.36148022h-112.47576096c-31.14713348 0-56.36148023-25.21434674-56.36148161-56.36148022 0-31.14713348 25.21434674-56.36148023 56.36148161-56.36148025zM105.52988347 750.79469419h224.95152331c31.14713348 0 56.36148023 25.21434674 56.36148023 56.36148024 0 31.14713348-25.21434674 56.36148023-56.36148023 56.36148024h-224.95152331c-31.14713348 0-56.36148023-25.21434674-56.36148161-56.36148024 0-31.14713348 25.21434674-56.36148023 56.36148161-56.36148024z" p-id="6220"></path><path d="M805.10439973 81.87291242c-134.47651552 0-243.98588242 109.50936828-243.98588243 243.98588242 0 134.47651552 109.50936828 243.98588242 243.98588243 243.98588242 134.47651552 0 243.98588242-109.50936828 243.9858838-243.98588242 0-134.47651552-109.50936828-243.98588242-243.9858838-243.98588242z m0 0" p-id="6221"></path><path d="M993.22320092 564.15909003c-51.91189051 41.03511369-116.67815254 66.49665856-188.11880119 66.49665856-71.44064866 0-135.95971117-25.46154626-188.11880121-66.49665856-98.63259146 62.78866736-167.35404555 173.03963277-176.74762534 300.84176166 34.60792656 4.69679058 95.91339689 9.64077931 183.66921148 9.64077932h362.147232c87.7558146 0 149.30848306-4.9439901 183.9164096-9.64077932-9.39357981-127.8021289-78.11503391-238.05309569-176.74762534-300.84176166z m0 0" p-id="6222"></path></svg>
