<?xml version="1.0" standalone="no"?><!DOCTYPE svg PUBLIC "-//W3C//DTD SVG 1.1//EN" "http://www.w3.org/Graphics/SVG/1.1/DTD/svg11.dtd"><svg t="1572599878920" class="icon" viewBox="0 0 1248 1024" version="1.1" xmlns="http://www.w3.org/2000/svg" p-id="6180" xmlns:xlink="http://www.w3.org/1999/xlink" width="243.75" height="200"><defs><style type="text/css"></style></defs><path d="M1008.85245033 939.66502079c0 16.32142827-0.17840427 29.5098496-0.17840427 29.5098496s-2.43958827 7.11427413-9.55386346 0L877.79546261 847.79040106l-121.58811841 121.372688s-13.37944747 7.93897173-34.18369281 0c-6.9594336-2.63061547-121.03775893-121.38530987-121.03776-121.38531094L479.31277887 969.16308906s-18.6398368 7.93897173-36.1570752 0c-5.9899936-2.69036373-121.360064-121.38530987-121.36006508-121.38531094s-114.05560427 114.39053227-121.36090559 121.38531094c-7.30530133 7.01834027-9.73310827 0-9.73310828 0V63.64486506c0-16.297024 13.08070507-29.509008 29.22288749-29.50900694h759.71767251c16.11777813 0 29.209424 13.211984 29.20942402 29.50900694V939.66502079zM833.31736233 209.46982079h-467.06466026v58.43231147h467.06466027v-58.43231147z m0 175.77576533h-467.06466026v58.43231147h467.06466027v-58.43231147z m0 174.711232h-467.06466026v58.43231254h467.06466027v-58.43231254z" fill="" p-id="6181"></path></svg>