<?xml version="1.0" encoding="utf-8"?>
<!-- Generator: Adobe Illustrator 23.0.1, SVG Export Plug-In . SVG Version: 6.00 Build 0)  -->
<svg version="1.1" id="图层_1" xmlns="http://www.w3.org/2000/svg" xmlns:xlink="http://www.w3.org/1999/xlink" x="0px" y="0px"
	 viewBox="0 0 10 10" enable-background="new 0 0 10 10" xml:space="preserve">
<g>
	<g>
		<path d="M4.8,8.9L1.8,5l3.1-3.9C4.9,1,5,0.8,5,0.6S4.9,0.3,4.8,0.1C4.7,0.1,4.5,0,4.4,0.1C4.2,0.1,4,0.1,3.9,0.2
			L0.4,4.6c-0.2,0.2-0.2,0.6,0,0.8l3.3,4.3C3.9,9.9,4,10,4.2,10s0.3,0,0.5-0.2c0.2-0.1,0.2-0.2,0.2-0.4S4.9,9.1,4.8,8.9L4.8,8.9z"/>
		<path d="M5.2,4.6C5,4.8,5,5.1,5.2,5.4l3.3,4.3C8.6,9.9,8.8,10,8.9,10s0.3,0,0.5-0.2c0.2-0.1,0.2-0.2,0.2-0.4
			s0-0.3-0.2-0.5L6.4,5l3.1-3.9C9.6,1,9.7,0.8,9.7,0.6S9.6,0.3,9.4,0.1C9.3,0.1,9.2,0,9,0.1c-0.2,0-0.3,0.1-0.4,0.2L5.2,4.6z"/>
	</g>
</g>
</svg>
