<?xml version="1.0" standalone="no"?><!DOCTYPE svg PUBLIC "-//W3C//DTD SVG 1.1//EN" "http://www.w3.org/Graphics/SVG/1.1/DTD/svg11.dtd"><svg t="1564736588224" class="icon" viewBox="0 0 1024 1024" version="1.1" xmlns="http://www.w3.org/2000/svg" p-id="6371" xmlns:xlink="http://www.w3.org/1999/xlink" width="200" height="200"><defs><style type="text/css"></style></defs><path d="M925.93076943 960.54615371H98.06923057a34.61538427 34.61538427 0 0 1-34.61538428-34.61538428V180.24615371a34.61538427 34.61538427 0 0 1 34.61538428-34.61538428h69.23076943a34.61538427 34.61538427 0 0 1 0 69.23076944h-34.61538427v676.45384541h758.63076855V214.86153886h-34.61538428a34.61538427 34.61538427 0 0 1 0-69.23076943h69.23076943a34.61538427 34.61538427 0 0 1 34.61538429 34.61538428v745.68461572a34.61538427 34.61538427 0 0 1-34.61538429 34.61538428z" p-id="6372"></path><path d="M304.30769258 62a34.61538427 34.61538427 0 0 0-34.61538516 34.61538427v138.46153888a34.61538427 34.61538427 0 0 0 69.23076943 0v-138.46153888a34.61538427 34.61538427 0 0 0-34.61538427-34.61538427zM719.69230742 62a34.61538427 34.61538427 0 0 0-34.61538427 34.61538427v138.46153888a34.61538427 34.61538427 0 0 0 69.23076943 0v-138.46153888a34.61538427 34.61538427 0 0 0-34.61538516-34.61538427zM581.16153886 145.63076943h-138.46153886a34.61538427 34.61538427 0 0 0 0 69.23076943h138.46153887a34.61538427 34.61538427 0 0 0 0-69.23076943zM304.30769258 400.95384629h-69.23076943a34.61538427 34.61538427 0 0 0 0 69.23076943h69.23076943a34.61538427 34.61538427 0 0 0 0-69.23076944zM304.23846114 539.41538427h-69.23076856a34.61538427 34.61538427 0 0 0 0 69.23076945h69.23076856a34.61538427 34.61538427 0 0 0-1e-8-69.23076945zM788.92307685 400.95384629h-69.23076943a34.61538427 34.61538427 0 0 0 0 69.23076943h69.23076943a34.61538427 34.61538427 0 0 0 0-69.23076944zM788.92307685 539.41538427h-69.23076943a34.61538427 34.61538427 0 0 0 0 69.23076945h69.23076943a34.61538427 34.61538427 0 0 0 0-69.23076945zM546.54615372 400.95384629h-69.23076944a34.61538427 34.61538427 0 0 0 0 69.23076943h69.23076943a34.61538427 34.61538427 0 0 0 0-69.23076944zM546.61538427 539.41538427H477.38461573a34.61538427 34.61538427 0 0 0 0 69.23076945h69.23076854a34.61538427 34.61538427 0 0 0 0-69.23076945zM304.23846114 677.87692315h-69.23076856a34.61538427 34.61538427 0 0 0 0 69.23076943h69.23076856a34.61538427 34.61538427 0 0 0-1e-8-69.23076943zM546.54615372 677.87692315h-69.23076944a34.61538427 34.61538427 0 0 0 0 69.23076943h69.23076943a34.61538427 34.61538427 0 0 0 0-69.23076943z" fill="#707070" p-id="6373"></path></svg>
