<?xml version="1.0" encoding="utf-8"?>
<!-- Generator: Adobe Illustrator 23.0.1, SVG Export Plug-In . SVG Version: 6.00 Build 0)  -->
<svg version="1.1" id="图层_1" xmlns="http://www.w3.org/2000/svg" xmlns:xlink="http://www.w3.org/1999/xlink" x="0px" y="0px"
	 viewBox="0 0 10 10" enable-background="new 0 0 10 10" xml:space="preserve">
<path d="M2.8,4.6c-0.2,0.2-0.2,0.6,0,0.8l3.3,4.3C6.2,9.9,6.4,10,6.6,10c0.2,0,0.3,0,0.5-0.2
	c0.2-0.1,0.2-0.2,0.2-0.4s0-0.3-0.2-0.5L4.1,5l3.1-3.9C7.3,1,7.3,0.8,7.3,0.6S7.2,0.3,7.1,0.1C7,0.1,6.8,0,6.6,0.1
	c-0.2,0-0.3,0.1-0.4,0.2L2.8,4.6z"/>
</svg>
