<?xml version="1.0" encoding="utf-8"?>
<!-- Generator: Adobe Illustrator 23.0.1, SVG Export Plug-In . SVG Version: 6.00 Build 0)  -->
<svg version="1.1" id="图层_1" xmlns="http://www.w3.org/2000/svg" xmlns:xlink="http://www.w3.org/1999/xlink" x="0px" y="0px"
	 viewBox="0 0 14 14" enable-background="new 0 0 14 14" xml:space="preserve">
<g>
	<path d="M11.9,1.6h-0.7c-0.3,0-0.5,0.2-0.5,0.5c0,0.3,0.2,0.5,0.5,0.5h0.7c0.5,0,0.9,0.4,0.9,0.9v1.8H1.1V3.6
		c0-0.2,0.1-0.5,0.3-0.7c0.2-0.2,0.4-0.3,0.7-0.3h0.7c0.3,0,0.5-0.2,0.5-0.5c0-0.3-0.2-0.5-0.5-0.5H2.1c-1.1,0-2,0.9-2,2v8
		c0,1.1,0.9,2,2,2h9.9c1.1,0,2-0.9,2-2v-8C13.9,2.5,13,1.6,11.9,1.6z M11.9,12.5H2.1c-0.2,0-0.5-0.1-0.7-0.3
		c-0.2-0.2-0.3-0.4-0.3-0.7V6.4h11.8v5.2C12.9,12.1,12.5,12.5,11.9,12.5z"/>
	<path d="M4,4.1c0.3,0,0.5-0.2,0.5-0.5V0.9c0-0.3-0.2-0.5-0.5-0.5c-0.3,0-0.5,0.2-0.5,0.5v2.6C3.5,3.8,3.7,4.1,4,4.1
		z"/>
	<path d="M10,4.1c0.1,0,0.3-0.1,0.4-0.2c0.1-0.1,0.2-0.2,0.2-0.4V0.9c0-0.3-0.2-0.5-0.5-0.5c-0.3,0-0.5,0.2-0.5,0.5
		v2.6c0,0.1,0.1,0.3,0.2,0.4C9.7,4,9.8,4.1,10,4.1z"/>
	<path d="M5.3,2.6h3.3c0.3,0,0.5-0.2,0.5-0.5c0-0.3-0.2-0.5-0.5-0.5H5.3C5,1.6,4.8,1.8,4.8,2.1
		C4.8,2.4,5,2.6,5.3,2.6z"/>
</g>
</svg>
