<?xml version="1.0" encoding="utf-8"?>
<!-- Generator: Adobe Illustrator 23.0.1, SVG Export Plug-In . SVG Version: 6.00 Build 0)  -->
<svg version="1.1" id="图层_1" xmlns="http://www.w3.org/2000/svg" xmlns:xlink="http://www.w3.org/1999/xlink" x="0px" y="0px"
	 viewBox="0 0 16 16" enable-background="new 0 0 16 16" xml:space="preserve">
<g>
	<g>
		<path d="M12.4,4.1c0-0.3-0.3-0.6-0.6-0.6H4.6c-0.3,0-0.6,0.3-0.6,0.6c0,0.3,0.3,0.6,0.6,0.6h7.2
			C12.2,4.6,12.4,4.4,12.4,4.1L12.4,4.1z M4.6,6.9c-0.3,0-0.6,0.3-0.6,0.6C4.1,7.8,4.3,8,4.6,8H8c0.3,0,0.6-0.3,0.6-0.6
			c0-0.3-0.3-0.6-0.6-0.6H4.6z M12.8,12.7c0,0-0.1-0.1-0.1-0.1c0.3-0.5,0.5-1,0.5-1.6c0-1.6-1.3-2.8-2.9-2.8c-1.6,0-2.9,1.3-2.9,2.8
			c0,1.6,1.3,2.8,2.9,2.8c0.6,0,1.1-0.2,1.6-0.5c0,0.1,0.1,0.1,0.1,0.1l1.5,1.5c0.2,0.2,0.6,0.2,0.8,0c0.2-0.2,0.2-0.6,0-0.8
			L12.8,12.7z M10.3,12.7c-1,0-1.7-0.8-1.7-1.7c0-0.9,0.8-1.7,1.7-1.7c1,0,1.7,0.8,1.7,1.7C12,11.9,11.2,12.7,10.3,12.7L10.3,12.7z
			 M10.3,12.7"/>
		<path d="M9.4,14.8H3.1c-0.6,0-1.1-0.5-1.1-1.1V2.4c0-0.6,0.5-1.1,1.1-1.1h9.7c0.6,0,1.1,0.5,1.1,1.1V8h0v0
			c0,0.3,0.3,0.6,0.6,0.6c0.3,0,0.6-0.3,0.6-0.6c0,0,0,0,0-0.1V2.4c0-1.2-0.5-2.3-1.7-2.3H3.2c-1.2,0-2.3,1-2.3,2.3v11.3
			c0,1.2,1,2.3,2.3,2.3h6.2c0.3,0,0.6-0.3,0.6-0.6C10,15,9.7,14.8,9.4,14.8L9.4,14.8z M9.4,14.8"/>
	</g>
</g>
</svg>
