<?xml version="1.0" encoding="utf-8"?>
<!-- Generator: Adobe Illustrator 23.0.1, SVG Export Plug-In . SVG Version: 6.00 Build 0)  -->
<svg version="1.1" id="图层_1" xmlns="http://www.w3.org/2000/svg" xmlns:xlink="http://www.w3.org/1999/xlink" x="0px" y="0px"
	 viewBox="0 0 14 14" enable-background="new 0 0 14 14" xml:space="preserve">
<g>
	<g>
		<defs>
			<rect id="SVGID_1_" x="0.1" y="0.1" width="13.9" height="13.9"/>
		</defs>
		<clipPath id="SVGID_2_">
			<use xlink:href="#SVGID_1_"  overflow="visible"/>
		</clipPath>
		<path clip-path="url(#SVGID_2_)" d="M12.3,0.9c0.4,0,0.8,0.3,0.8,0.8v10.6c0,0.4-0.3,0.8-0.8,0.8H1.7
			c-0.4,0-0.8-0.3-0.8-0.8V1.7c0-0.4,0.3-0.8,0.8-0.8H12.3 M12.3,0.1H1.7c-0.9,0-1.6,0.7-1.6,1.6v10.6c0,0.9,0.7,1.6,1.6,1.6h10.6
			c0.9,0,1.6-0.7,1.6-1.6V1.7C13.9,0.8,13.2,0.1,12.3,0.1L12.3,0.1z M12.3,0.1"/>
	</g>
	<path d="M10,6.6H6.6H6.4H4C3.7,6.6,3.5,6.8,3.5,7c0,0.2,0.2,0.4,0.4,0.4h2.5h0.1H10c0.2,0,0.4-0.2,0.4-0.4
		C10.5,6.8,10.3,6.6,10,6.6z"/>
</g>
</svg>
