<?xml version="1.0" standalone="no"?><!DOCTYPE svg PUBLIC "-//W3C//DTD SVG 1.1//EN" "http://www.w3.org/Graphics/SVG/1.1/DTD/svg11.dtd"><svg t="1564736794889" class="icon" viewBox="0 0 1024 1024" version="1.1" xmlns="http://www.w3.org/2000/svg" p-id="6490" xmlns:xlink="http://www.w3.org/1999/xlink" width="200" height="200"><defs><style type="text/css"></style></defs><path d="M512.22950079 6.28992918c-278.79813047 0-504.79515068 226.03460358-504.79515068 504.83390853s225.99584573 504.79515068 504.79515068 504.79515068c278.79930495 0 504.83390853-225.99584573 504.83390853-504.79515068s-226.03342911-504.83390853-504.83390853-504.83390853zM756.77273922 684.23048717c12.81005649 12.81005649 11.20454194 35.17685907-3.57276903 49.9917534l-17.86854309 17.83095972c-14.77613649 14.77496201-37.14411355 16.38165105-49.95299555 3.57276903l-173.14893076-173.10782395-173.10899842 173.10782395c-12.81005649 12.81005649-35.17803355 11.20336745-49.99292788-3.57276903l-17.82861075-17.83095972c-14.77496201-14.81841778-16.38165105-37.18404588-3.57276903-49.9917534l173.10782394-173.10899843-173.10899842-173.10899842c-12.81005649-12.84998882-11.20336745-35.2167914 3.57276903-49.99292788l17.82861074-17.82861075c14.81841778-14.81841778 37.18522036-16.38282552 49.99292789-3.57394351l173.10899843 173.1101729 173.14893075-173.1101729c12.81005649-12.81005649 35.17803355-11.24329979 49.95299555 3.57394351l17.86854309 17.82861075c14.77613649 14.77613649 16.38165105 37.14411355 3.57276903 49.99292788l-173.1465818 173.10899842 173.14775628 173.10899843z" p-id="6491"></path></svg>