<?xml version="1.0" encoding="utf-8"?>
<!-- Generator: Adobe Illustrator 23.0.1, SVG Export Plug-In . SVG Version: 6.00 Build 0)  -->
<svg version="1.1" id="图层_1" xmlns="http://www.w3.org/2000/svg" xmlns:xlink="http://www.w3.org/1999/xlink" x="0px" y="0px"
	 viewBox="0 0 14 14" enable-background="new 0 0 14 14" xml:space="preserve">
<g>
	<g>
		<path d="M7,14c3.9,0,7-3.1,7-7c0-3.9-3.1-7-7-7C3.1,0,0,3.1,0,7C0,10.9,3.1,14,7,14L7,14z M7.5,6.9l2.3,2.3
			c0.2,0.2,0.2,0.5,0,0.7C9.7,10,9.4,10,9.2,9.9L6.9,7.5L4.6,9.9C4.4,10,4.1,10,3.9,9.9c-0.2-0.2-0.2-0.5,0-0.7l2.3-2.3L3.9,4.6
			c-0.2-0.2-0.2-0.5,0-0.7c0.2-0.2,0.5-0.2,0.7,0l2.3,2.3l2.3-2.3c0.2-0.2,0.5-0.2,0.7,0c0.2,0.2,0.2,0.5,0,0.7L7.5,6.9z M7.4,6.9"
			/>
	</g>
</g>
</svg>
