<?xml version="1.0" encoding="utf-8"?>
<!-- Generator: Adobe Illustrator 23.0.1, SVG Export Plug-In . SVG Version: 6.00 Build 0)  -->
<svg version="1.1" id="图层_1" xmlns="http://www.w3.org/2000/svg" xmlns:xlink="http://www.w3.org/1999/xlink" x="0px" y="0px"
	 viewBox="0 0 16 16" enable-background="new 0 0 16 16" xml:space="preserve">
<g>
	<path d="M11.9,14.4h-1.5V4.1H9v10.3H7V4.1H5.5v10.3H4.1V4.1h7.9V14.4z M6.5,1.6h3v1h-3V1.6z M13.6,2.6h-2.7V1.1
		c0-0.5-0.4-1-1-1H6c-0.5,0-1,0.4-1,1v1.5H2.3c-0.4,0-0.7,0.3-0.7,0.7s0.3,0.7,0.7,0.7h0.2v10.8c0,0.5,0.4,1,1,1h8.9
		c0.5,0,1-0.4,1-1V4.1h0.2c0.4,0,0.7-0.3,0.7-0.7S14.1,2.6,13.6,2.6L13.6,2.6z M13.6,2.6"/>
</g>
</svg>
