<?xml version="1.0" encoding="utf-8"?>
<!-- Generator: Adobe Illustrator 23.0.1, SVG Export Plug-In . SVG Version: 6.00 Build 0)  -->
<svg version="1.1" id="图层_1" xmlns="http://www.w3.org/2000/svg" xmlns:xlink="http://www.w3.org/1999/xlink" x="0px" y="0px"
	 viewBox="0 0 14 14" enable-background="new 0 0 14 14" xml:space="preserve">
<g>
	<g>
		<path d="M4.4,7.7C4.4,7.7,4.4,7.8,4.4,7.7l-0.7,2.6c0,0.1,0,0.3,0.1,0.4c0.1,0.1,0.2,0.1,0.3,0.1c0,0,0.1,0,0.1,0
			l2.6-0.7c0,0,0,0,0,0c0,0,0.1,0,0.1,0l6.8-6.8C13.9,3.1,14,2.8,14,2.5c0-0.3-0.1-0.7-0.4-0.9L12.9,1c-0.3-0.3-0.6-0.4-0.9-0.4
			c-0.3,0-0.6,0.1-0.8,0.3L4.4,7.7C4.4,7.7,4.4,7.7,4.4,7.7 M13,2.6l-0.7,0.7l-1.1-1.1l0.7-0.7c0.1-0.1,0.3-0.1,0.4,0L13,2.2
			c0.1,0.1,0.1,0.2,0.1,0.2C13.1,2.5,13,2.6,13,2.6 M5.6,7.8l4.9-4.9L11.6,4L6.7,8.9L5.6,7.8z M4.7,9.8L5,8.5l1,1L4.7,9.8z M4.7,9.8
			"/>
		<path d="M13.4,5.4c-0.3,0-0.5,0.2-0.5,0.5v6.4c0,0.3-0.3,0.6-0.6,0.6H1.6c-0.3,0-0.6-0.3-0.6-0.6V1.8
			c0-0.3,0.3-0.6,0.6-0.6h6.9C8.8,1.2,9,1,9,0.7c0-0.3-0.2-0.5-0.5-0.5h-7C0.7,0.2,0,0.9,0,1.7v10.5c0,0.8,0.7,1.5,1.5,1.5h10.9
			c0.8,0,1.5-0.7,1.5-1.5V5.8C13.9,5.6,13.7,5.4,13.4,5.4"/>
	</g>
</g>
</svg>
