<?xml version="1.0" encoding="utf-8"?>
<!-- Generator: Adobe Illustrator 23.0.1, SVG Export Plug-In . SVG Version: 6.00 Build 0)  -->
<svg version="1.1" id="图层_1" xmlns="http://www.w3.org/2000/svg" xmlns:xlink="http://www.w3.org/1999/xlink" x="0px" y="0px"
	 viewBox="0 0 70 70" enable-background="new 0 0 70 70" xml:space="preserve">
<g opacity="0.25">
	<g>
		<ellipse fill="#D4D8DB" cx="35" cy="51.8" rx="34.4" ry="6.9"/>
	</g>
	<g>
		<g>
			<path fill="#D4D8DB" d="M11,26h8.2c0.7,0,1.3,0.4,1.6,1l2.7,5.8c0.3,0.6,0.9,1,1.6,1H45c0.7,0,1.3-0.4,1.6-1l2.7-5.8
				c0.3-0.6,0.9-1,1.6-1H59c1,0,1.7,0.8,1.7,1.9v23.8c0,1-0.8,1.9-1.7,1.9H11c-1,0-1.7-0.8-1.7-1.9V27.8C9.2,26.8,10,26,11,26z"/>
			<path fill="#798294" d="M59,54.3H11c-1.4,0-2.6-1.2-2.6-2.7V27.8c0-1.5,1.2-2.7,2.6-2.7h8.2c1,0,1.9,0.6,2.3,1.5l2.7,5.8
				c0.2,0.3,0.5,0.5,0.8,0.5H45c0.3,0,0.6-0.2,0.8-0.5l2.7-5.8c0.4-0.9,1.3-1.5,2.3-1.5H59c1.4,0,2.6,1.2,2.6,2.7v23.8
				C61.6,53.1,60.5,54.3,59,54.3z M11,26.8c-0.5,0-0.9,0.4-0.9,1v23.8c0,0.6,0.4,1,0.9,1H59c0.5,0,0.9-0.4,0.9-1V27.8
				c0-0.6-0.4-1-0.9-1h-8.2c-0.3,0-0.6,0.2-0.8,0.5l-2.7,5.8c-0.4,0.9-1.3,1.5-2.3,1.5H25c-1,0-1.9-0.6-2.3-1.5L20,27.4
				c-0.2-0.3-0.5-0.5-0.8-0.5H11z"/>
		</g>
	</g>
	<g>
		<g>
			<path fill="#798294" d="M59.8,27.3L48.6,13.5c-0.2-0.2-0.4-0.4-0.7-0.4H22.1c-0.3,0-0.5,0.1-0.7,0.3L10.2,27.3l-1.3-1.1
				l11.2-13.8c0.5-0.6,1.2-1,2-1h25.8c0.8,0,1.6,0.4,2,1l11.2,13.8L59.8,27.3z"/>
		</g>
	</g>
</g>
</svg>
