<?xml version="1.0" encoding="utf-8"?>
<!-- Generator: Adobe Illustrator 23.0.1, SVG Export Plug-In . SVG Version: 6.00 Build 0)  -->
<svg version="1.1" id="图层_1" xmlns="http://www.w3.org/2000/svg" xmlns:xlink="http://www.w3.org/1999/xlink" x="0px" y="0px"
	 viewBox="0 0 16 16" enable-background="new 0 0 16 16" xml:space="preserve">
<g>
	<path d="M14.1,15.9H1.9c-1,0-1.8-0.8-1.8-1.8V1.9c0-1,0.8-1.8,1.8-1.8h12.2c1,0,1.8,0.8,1.8,1.8v12.2
		C15.9,15.1,15.1,15.9,14.1,15.9z M1.9,1.1c-0.5,0-0.8,0.4-0.8,0.8v12.2c0,0.5,0.4,0.8,0.8,0.8h12.2c0.5,0,0.8-0.4,0.8-0.8V1.9
		c0-0.5-0.4-0.8-0.8-0.8C14.1,1.1,1.9,1.1,1.9,1.1z"/>
</g>
<g>
	<g>
		<g>
			<path d="M8.2,8.3l2.7,0c0.1,0,0.2-0.1,0.2-0.2c0-0.1-0.1-0.2-0.2-0.2l-2.7,0l0-2.7C8.2,5.1,8.1,5,8,5
				C7.8,5,7.7,5.1,7.7,5.2l0,2.7l-2.7,0c-0.1,0-0.2,0.1-0.2,0.2c0,0.1,0,0.1,0.1,0.2c0,0,0.1,0.1,0.2,0.1l2.7,0l0,2.7
				c0,0.1,0,0.1,0.1,0.2c0,0,0.1,0.1,0.2,0.1c0.1,0,0.2-0.1,0.2-0.2L8.2,8.3z M8.2,8.3"/>
			<path d="M7.9,11.5c-0.1,0-0.3-0.1-0.4-0.1c-0.1-0.1-0.1-0.2-0.1-0.4l0-2.4l-2.4,0c-0.1,0-0.3-0.1-0.4-0.1
				C4.6,8.3,4.6,8.2,4.6,8c0-0.3,0.2-0.5,0.5-0.5l2.4,0l0-2.4c0-0.3,0.2-0.5,0.5-0.5c0,0,0,0,0,0c0.3,0,0.5,0.2,0.5,0.5l0,2.4l2.4,0
				c0.3,0,0.5,0.2,0.5,0.5c0,0.3-0.2,0.5-0.5,0.5l-2.4,0l0,2.4C8.4,11.2,8.2,11.5,7.9,11.5z M5.1,8.1L5.1,8.1L5.1,8.1L5.1,8.1z
				 M7.7,5.2h0.2H7.7z"/>
		</g>
	</g>
</g>
</svg>
