<?xml version="1.0" standalone="no"?><!DOCTYPE svg PUBLIC "-//W3C//DTD SVG 1.1//EN" "http://www.w3.org/Graphics/SVG/1.1/DTD/svg11.dtd"><svg t="1572420857518" class="icon" viewBox="0 0 1024 1024" version="1.1" xmlns="http://www.w3.org/2000/svg" p-id="6180" xmlns:xlink="http://www.w3.org/1999/xlink" width="200" height="200"><defs><style type="text/css"></style></defs><path d="M411.68896 470.784c0 19.00032-15.58528 34.4064-34.82112 34.4064H41.7024c-19.22048 0-34.82112-15.40608-34.82112-34.4064V135.31648c0-19.01056 15.60064-34.41152 34.82112-34.41152h335.17056c19.23584 0 34.82112 15.40096 34.82112 34.41152V470.784zM411.68896 976.80896c0 18.97472-15.58528 34.39104-34.82112 34.39104H41.7024c-19.22048 0-34.82112-15.41632-34.82112-34.39104v-335.49824c0-18.97472 15.60064-34.39104 34.82112-34.39104h335.17056c19.23584 0 34.82112 15.41632 34.82112 34.39104v335.49824zM917.69856 976.80896c0 18.97472-15.58016 34.39104-34.82624 34.39104h-335.16032c-19.20512 0-34.82624-15.41632-34.82624-34.39104v-335.49824c0-18.97472 15.62112-34.39104 34.82624-34.39104h335.16032c19.24608 0 34.82624 15.41632 34.82624 34.39104v335.49824zM771.66592 542.6432c-13.44512 13.44-35.3536 13.312-48.96256-0.29696L485.7088 305.3568c-13.568-13.58336-13.7216-35.51744-0.27648-48.95232l237.2096-237.21472c13.42976-13.44 35.3792-13.29152 48.95232 0.2816l236.99456 236.99456c13.59872 13.60384 13.73696 35.51744 0.29184 48.95232l-237.21472 237.22496z" p-id="6181"></path></svg>