<?xml version="1.0" standalone="no"?><!DOCTYPE svg PUBLIC "-//W3C//DTD SVG 1.1//EN" "http://www.w3.org/Graphics/SVG/1.1/DTD/svg11.dtd"><svg t="1564738771737" class="icon" viewBox="0 0 1024 1024" version="1.1" xmlns="http://www.w3.org/2000/svg" p-id="7578" xmlns:xlink="http://www.w3.org/1999/xlink" width="200" height="200"><defs><style type="text/css"></style></defs><path d="M512.56497348 1015.06441491c-134.46729648 0-260.88552387-52.36342582-355.96815784-147.44726186-95.08263399-95.08263399-147.44726187-221.49965929-147.44726186-355.96815785 0-134.46609442 52.36462788-260.88552387 147.44726186-355.96815786 95.08383605-95.08383605 221.50206344-147.44726187 355.96815784-147.44726186s260.88552387 52.36342582 355.96815786 147.44726186c95.08383605 95.08383605 147.44726187 221.50206344 147.44726186 355.96815786 0 134.46849856-52.36342582 260.88552387-147.44726186 355.96815785-95.08263399 95.08383605-221.50206344 147.44726187-355.96815786 147.44726186zM512.56497348 54.41835506c-252.11761615 0-457.23064013 205.11182192-457.23064012 457.23064014s205.11302398 457.23064013 457.23064012 457.23064013c252.11761615 0 457.23184219-205.11182192 457.23184222-457.23064013s-205.11182192-457.23064013-457.23184222-457.23064014zM509.91681051 809.46094585c-20.40515952 0-36.90238537-16.5417025-36.90238537-36.94806407v-327.91301689c0-20.40636158 16.49602379-36.94806407 36.90238537-36.94806407 20.40515952 0 36.90238537 16.5417025 36.90238538 36.94806407v327.91301689c0 20.40515952-16.49602379 36.94806407-36.90238538 36.94806407zM460.47321577 269.09746207c0 0 0 0 0 0 0 28.05754509 22.74559223 50.80313732 50.80313735 50.80313734 28.05754509 0 50.80313732-22.74559223 50.80313732-50.80313734 0 0 0 0 0 0 0 0 0 0 0 0 0-28.05754509-22.74559223-50.80313732-50.80313732-50.80313734-28.05754509 0-50.80313732 22.74559223-50.80313735 50.80313734 0 0 0 0 0 0z" p-id="7579"></path></svg>