<?xml version="1.0" standalone="no"?><!DOCTYPE svg PUBLIC "-//W3C//DTD SVG 1.1//EN" "http://www.w3.org/Graphics/SVG/1.1/DTD/svg11.dtd"><svg t="1563955203728" class="icon" viewBox="0 0 1024 1024" version="1.1" xmlns="http://www.w3.org/2000/svg" p-id="8745" xmlns:xlink="http://www.w3.org/1999/xlink" width="200" height="200"><defs><style type="text/css"></style></defs><path d="M511.17675 241.946424c50.520627 0 91.486644-40.056298 91.486644-89.447195 0-49.408293-40.966017-89.455381-91.486644-89.455381-50.52779 0-91.485621 40.047088-91.485621 89.455381C419.691129 201.890126 460.64896 241.946424 511.17675 241.946424L511.17675 241.946424zM511.17675 420.856164c-50.52779 0-91.485621 40.049135-91.485621 89.448218 0 49.400107 40.957831 89.455381 91.485621 89.455381 50.520627 0 91.486644-40.055275 91.486644-89.455381C602.663394 460.904275 561.697377 420.856164 511.17675 420.856164L511.17675 420.856164zM511.17675 778.663362c-50.52779 0-91.485621 40.008202-91.485621 89.454358 0 49.400107 40.957831 89.448218 91.485621 89.448218 50.520627 0 91.486644-40.048111 91.486644-89.448218C602.663394 818.671565 561.697377 778.663362 511.17675 778.663362L511.17675 778.663362zM511.17675 778.663362" p-id="8746"></path></svg>