<?xml version="1.0" standalone="no"?><!DOCTYPE svg PUBLIC "-//W3C//DTD SVG 1.1//EN" "http://www.w3.org/Graphics/SVG/1.1/DTD/svg11.dtd"><svg t="1572599975818" class="icon" viewBox="0 0 1517 1024" version="1.1" xmlns="http://www.w3.org/2000/svg" p-id="6535" xmlns:xlink="http://www.w3.org/1999/xlink" width="296.2890625" height="200"><defs><style type="text/css"></style></defs><path d="M1148.10626434 445.43734341c-49.99442371-0.24387525-95.84296813 28.0456525-118.0356146 72.9186959l-69.99219292-10.73051103c-1.46325152-41.70266516-15.36413942-81.94208021-39.99553838-115.59686208L993.48936485 319.10997025c53.89642772 27.80177723 119.4988661 17.80289194 162.42090754-24.8752742 26.09465049-25.85077522 40.72716415-61.21268386 40.72716414-97.79397016 0-36.82516014-14.63251369-71.94319491-40.72716414-97.79397013-54.38417824-53.89642772-141.93538781-53.89642772-196.31956607-1e-8-42.92204141 42.67816616-53.16480198 108.28060455-24.8752742 161.93315701l-76.33294946 74.86969794c-68.52894139-40.72716415-154.37302562-38.77616214-220.95096495 5.36525553l-149.73939449-149.73939586c28.0456525-53.65255247 18.0467672-119.25499088-24.8752742-161.93315701-54.38417824-53.89642772-142.17926307-53.89642772-196.56344131 0-26.09465049 25.85077522-40.72716415 61.21268386-40.72716416 97.79397015 0 36.82516014 14.63251369 71.94319491 40.72716416 97.79397014 42.43429089 42.92204141 107.5489802 53.65255247 161.68928176 26.58240098l149.73939586 149.73939584c-22.68039696 33.89865853-34.63028428 73.65032167-34.63028426 114.37748583 0 19.51001869 2.926503 38.77616214 8.53563377 57.55455507l-110.96323229 110.47548322c-60.48105811-31.21603076-134.86300554-13.90088791-175.10242059 41.21491466-40.23941366 55.11580398-34.14253376 131.20487816 14.14476318 179.24829986 48.28729694 48.04342169 124.37637115 53.65255247 179.24829983 13.41313739s72.18707018-114.86523632 40.48328892-175.10242055l92.91646511-92.67258985c39.9955384 46.82404543 98.52559588 73.65032167 159.98215641 73.16257114 14.38863842 0 28.77727825-1.70712677 42.92204139-4.38975451l37.31291067 74.8696979c-40.23941366 39.75166315-50.23829897 100.96434842-24.87527423 151.69039788 29.75277925 60.48105811 100.47659789 88.77058584 163.64028376 65.60243836 63.40756111-23.16814748 98.76947116-90.4777126 82.42983073-155.83627572-16.33964043-65.35856314-79.50332771-107.79285405-146.32514234-98.52559588l-35.11803339-70.23606817c33.89865853-23.65589799 59.99330759-56.82293075 74.86969654-95.11134238l71.94319492 11.21826017c12.19376116 68.77281666 76.08907418 115.84073733 145.34964131 107.79285543 69.26056712-8.29175855 120.23049183-69.01669189 116.08461399-138.76501093-4.14587926-69.74831766-61.70043438-124.13249588-131.44875342-124.13249449l-0.975501-1.46325149z m0 0" p-id="6536"></path></svg>