<?xml version="1.0" standalone="no"?><!DOCTYPE svg PUBLIC "-//W3C//DTD SVG 1.1//EN" "http://www.w3.org/Graphics/SVG/1.1/DTD/svg11.dtd"><svg t="1564741686668" class="icon" viewBox="0 0 1024 1024" version="1.1" xmlns="http://www.w3.org/2000/svg" p-id="13608" xmlns:xlink="http://www.w3.org/1999/xlink" width="200" height="200"><defs><style type="text/css"></style></defs><path d="M939.126472 312.141136 939.126472 312.141136 449.642279 801.685705c-11.582803 11.605316-27.561729 18.733667-45.196365 18.733667-17.593703 0-33.549094-7.128351-45.131897-18.733667L82.546529 524.989849c-11.523451-11.533684-18.671245-27.528983-18.671245-45.090964 0-35.270295 28.595268-63.938218 63.866586-63.938218 17.633612 0 33.612539 7.188726 45.195342 18.721387l231.509724 231.562936 444.391183-444.452581c11.56336-11.531638 27.561729-18.649755 45.215808-18.649755 35.228339 0 63.866586 28.586059 63.866586 63.865563C957.920514 284.58964 950.792163 300.619732 939.126472 312.141136" p-id="13609"></path></svg>