<?xml version="1.0" encoding="utf-8"?>
<!-- Generator: Adobe Illustrator 23.0.1, SVG Export Plug-In . SVG Version: 6.00 Build 0)  -->
<svg version="1.1" id="图层_1" xmlns="http://www.w3.org/2000/svg" xmlns:xlink="http://www.w3.org/1999/xlink" x="0px" y="0px"
	 viewBox="0 0 16 16" enable-background="new 0 0 16 16" xml:space="preserve">
<g>
	<g>
		<path d="M1.6,10.1l9.5-9.5c0.5-0.5,1.2-0.5,1.7,0l2.6,2.6c0.5,0.5,0.5,1.2,0,1.7l-9.5,9.5l-4.7,1.3
			c-0.7,0.1-1-0.2-0.9-0.9L1.6,10.1 M2.5,10.9l-1,3.5l3.5-1L2.5,10.9 M14.1,4.5c0.4-0.4,0.4-0.4,0-0.9l-1.7-1.7
			c-0.4-0.4-0.4-0.4-0.9,0L9.8,3.6l2.6,2.6L14.1,4.5z M6,12.6l5.6-5.6L8.9,4.5L3.4,10C3.6,10.3,5.1,11.7,6,12.6L6,12.6z M6,12.6"/>
	</g>
</g>
</svg>
