<?xml version="1.0" standalone="no"?><!DOCTYPE svg PUBLIC "-//W3C//DTD SVG 1.1//EN" "http://www.w3.org/Graphics/SVG/1.1/DTD/svg11.dtd"><svg t="1578477098860" class="icon" viewBox="0 0 1248 1024" version="1.1" xmlns="http://www.w3.org/2000/svg" p-id="6706" xmlns:xlink="http://www.w3.org/1999/xlink" width="243.75" height="200"><defs><style type="text/css"></style></defs><path d="M513.55114646 1102.9575481c-241.83506819-29.07837849-430.60382427-207.26284465-479.97377185-443.08588655-14.45783977-69.03858213-16.86265139-145.42532254-4.5421737-211.06396112 32.71568304-174.30980059 115.85550695-314.70262804 267.29174421-410.57859034 82.56146563-52.26508062 172.46997519-80.06750555 277.05919908-76.10480584v593.88470283h590.63408478c9.33619484 222.65675642-144.38561568 440.93403667-361.6989655 516.00024861-99.0229441 36.58923429-228.44590946 38.19281302-288.77011702 30.94829241z" p-id="6707"></path><path d="M617.27896183-84.51432086c22.53256746 0 78.50850173 6.96147172 84.46146809 7.91202874 489.5763005 78.90856033 513.6834725 568.88714807 513.6834725 584.96305435-10.8506237 0-18.8373159 0.25296175-28.26265919 0.22287462-184.3302186-0.90598348-368.66043722-2.1083879-552.98954287-3.57712891-5.71560533-0.04457492-11.43009632-3.83009066-16.90722491-5.78915306l0.01448638-583.73167574z" p-id="6708"></path></svg>
