<?xml version="1.0" standalone="no"?><!DOCTYPE svg PUBLIC "-//W3C//DTD SVG 1.1//EN" "http://www.w3.org/Graphics/SVG/1.1/DTD/svg11.dtd"><svg t="1564738751745" class="icon" viewBox="0 0 1024 1024" version="1.1" xmlns="http://www.w3.org/2000/svg" p-id="7454" xmlns:xlink="http://www.w3.org/1999/xlink" width="200" height="200"><defs><style type="text/css"></style></defs><path d="M512 814.3143524m-53.85930309 0a1.68310322 1.68310322 0 1 0 107.71860618 0 1.68310322 1.68310322 0 1 0-107.71860618 0ZM512 1011.40349551C234.8041201 1011.40349551 9.31317116 785.91254657 9.31317116 508.71666666S234.8041201 6.02983783 512 6.02983783s502.68682884 225.49094893 502.68682884 502.68682883S789.1958799 1011.40349551 512 1011.40349551zM512 78.16539777C274.58819198 78.16539777 81.4487311 271.30485865 81.4487311 508.71666666c0 237.37590183 193.13946088 430.5512689 430.5512689 430.55126891 237.37590183 0 430.5512689-193.17536708 430.5512689-430.55126891C942.5512689 271.30485865 749.37590183 78.16539777 512 78.16539777zM512 690.15070568c-19.82022354 0-35.90620206-16.08597852-35.90620206-35.90620206l0-60.7173877c0-58.74254656 44.88275257-103.62529915 84.52319965-143.22984C589.66511506 421.21325225 619.71860618 391.19566733 619.71860618 367.24623056c0-59.85563884-48.32974798-108.54444883-107.71860618-108.54444883-60.39423187 0-107.71860618 46.60625028-107.71860618 106.10282708 0 19.82022354-16.08597852 35.90620206-35.90620206 35.90620205s-35.90620206-16.08597852-35.90620207-35.90620205c0-98.09574403 80.53761122-177.91523121 179.53101031-177.91523121s179.53101031 80.89667324 179.53101031 180.35685296c0 53.75158448-40.75353933 94.46921762-80.14264301 133.85832126C580.14997152 532.27113522 547.90620206 564.51490466 547.90620206 593.49120973l0 60.71738769C547.90620206 674.02882095 531.82022354 690.15070568 512 690.15070568z" p-id="7455"></path></svg>