<?xml version="1.0" standalone="no"?><!DOCTYPE svg PUBLIC "-//W3C//DTD SVG 1.1//EN" "http://www.w3.org/Graphics/SVG/1.1/DTD/svg11.dtd"><svg t="1564741705784" class="icon" viewBox="0 0 1024 1024" version="1.1" xmlns="http://www.w3.org/2000/svg" p-id="13732" xmlns:xlink="http://www.w3.org/1999/xlink" width="200" height="200"><defs><style type="text/css"></style></defs><path d="M591.71679688 511.91210937l238.79882812-238.79882812c21.88476563-21.88476563 21.88476563-57.56835938 0-79.453125-21.88476563-21.88476563-57.56835938-21.88476563-79.453125 0L512.26367188 432.45898437 273.46484375 193.66015625c-21.88476563-21.88476563-57.56835938-21.88476563-79.453125 0-21.88476563 21.88476563-21.88476563 57.56835938 0 79.453125l238.79882813 238.79882813-238.79882813 238.79882812c-21.88476563 21.88476563-21.88476563 57.56835938 0 79.453125 21.88476563 21.88476563 57.56835938 21.88476563 79.453125 0l238.79882813-238.79882813L751.15039063 830.1640625c21.88476563 21.88476563 57.56835938 21.88476563 79.45312499 0 21.88476563-21.88476563 21.88476563-57.56835938 0-79.453125L591.71679688 511.91210937z" p-id="13733"></path></svg>
