<?xml version="1.0" standalone="no"?><!DOCTYPE svg PUBLIC "-//W3C//DTD SVG 1.1//EN" "http://www.w3.org/Graphics/SVG/1.1/DTD/svg11.dtd"><svg t="1564736343043" class="icon" viewBox="0 0 1024 1024" version="1.1" xmlns="http://www.w3.org/2000/svg" p-id="6129" xmlns:xlink="http://www.w3.org/1999/xlink" width="200" height="200"><defs><style type="text/css"></style></defs><path d="M704.38948934 527.54843719c0.39598597-0.76672511 1.03780245-1.40854159 1.38462264-2.20051356 6.79820613-14.13989558 4.57244419-31.4423659-7.46526944-42.81434486L425.43316806 224.44094503c-14.8813731-14.06548219-38.33890437-13.3984181-52.42963417 1.45903604-14.06548219 14.8813731-13.42233704 38.33890437 1.45903604 52.42963418l244.84437112 231.61869802L375.42595899 745.00332066c-14.73254628 14.21298035-15.17769882 37.67184027-0.96338906 52.42963416 7.26727684 7.5636018 16.98222638 11.34673134 26.69717595 11.34673136 9.26979778 0 18.53959478-3.46022832 25.73245823-10.38201364l270.40408281-260.61471986c0.51956594-0.51956594 0.71622989-1.23579583 1.23579583-1.77927996 0.39598597-0.37073836 0.81589091-0.64314514 1.21054822-1.03780245C701.84348428 532.76402729 702.95570013 530.06919541 704.38948934 527.54843719z" p-id="6130"></path></svg>
