<?xml version="1.0" encoding="utf-8"?>
<!-- Generator: Adobe Illustrator 23.0.1, SVG Export Plug-In . SVG Version: 6.00 Build 0)  -->
<svg version="1.1" id="图层_1" xmlns="http://www.w3.org/2000/svg" xmlns:xlink="http://www.w3.org/1999/xlink" x="0px" y="0px"
	 viewBox="0 0 16 16" enable-background="new 0 0 16 16" xml:space="preserve">
<g>
	<path d="M15.4,13.1H7.9c-0.3-1-1.1-1.7-2.2-1.7c-1.1,0-2,0.7-2.2,1.7H0.6c-0.3,0-0.6,0.3-0.6,0.6
		c0,0.3,0.3,0.6,0.6,0.6h2.9c0.3,1,1.1,1.7,2.2,1.7c1.1,0,2-0.7,2.2-1.7h7.5c0.3,0,0.6-0.3,0.6-0.6C16,13.4,15.7,13.1,15.4,13.1
		L15.4,13.1z M5.7,14.9c-0.6,0-1.2-0.5-1.2-1.2c0-0.6,0.5-1.2,1.2-1.2s1.2,0.5,1.2,1.2C6.9,14.4,6.4,14.9,5.7,14.9L5.7,14.9z
		 M5.7,14.9"/>
	<path d="M15.4,7.4h-2.9c-0.3-1-1.1-1.7-2.2-1.7c-1.1,0-2,0.7-2.2,1.7H0.6C0.3,7.4,0,7.7,0,8c0,0.3,0.3,0.6,0.6,0.6
		h7.5c0.3,1,1.1,1.7,2.2,1.7c1.1,0,2-0.7,2.2-1.7h2.9C15.7,8.6,16,8.3,16,8C16,7.7,15.7,7.4,15.4,7.4L15.4,7.4z M10.3,9.2
		C9.6,9.2,9.1,8.6,9.1,8c0-0.6,0.5-1.2,1.2-1.2c0.6,0,1.2,0.5,1.2,1.2C11.4,8.6,10.9,9.2,10.3,9.2L10.3,9.2z M10.3,9.2"/>
	<path d="M0.6,2.9h2.9c0.3,1,1.1,1.7,2.2,1.7c1.1,0,2-0.7,2.2-1.7h7.5c0.3,0,0.6-0.3,0.6-0.6c0-0.3-0.3-0.6-0.6-0.6
		H7.9C7.7,0.7,6.8,0,5.7,0c-1.1,0-2,0.7-2.2,1.7H0.6C0.3,1.7,0,2,0,2.3C0,2.6,0.3,2.9,0.6,2.9L0.6,2.9z M5.7,1.1
		c0.6,0,1.2,0.5,1.2,1.2c0,0.6-0.5,1.2-1.2,1.2S4.6,2.9,4.6,2.3C4.6,1.6,5.1,1.1,5.7,1.1L5.7,1.1z M5.7,1.1"/>
</g>
</svg>
