<?xml version="1.0" standalone="no"?><!DOCTYPE svg PUBLIC "-//W3C//DTD SVG 1.1//EN" "http://www.w3.org/Graphics/SVG/1.1/DTD/svg11.dtd"><svg t="1578471708667" class="icon" viewBox="0 0 1024 1024" version="1.1" xmlns="http://www.w3.org/2000/svg" p-id="6400" xmlns:xlink="http://www.w3.org/1999/xlink" width="200" height="200"><defs><style type="text/css"></style></defs><path d="M644.86199399 648.99102873v28.69638385h-87.89679621v59.20041098h87.89679621v29.60020687h-87.89679621v58.29658798h-59.20041098v-58.29658798h-87.89679486v-29.60020687h87.89679486v-59.20041098h-87.89679486v-28.69638385h87.89679486l-117.4970017-117.49700036h59.20041235l87.89679483 87.89679485 87.89679484-87.89679485h59.20041236l-117.4970017 117.49700036h87.89679621z m-310.91514187-34.34527657v-121.11229368c-118.4008247-25.98491352-199.74490112-79.5364318-199.74490111-150.71249918V449.2461276c0 71.17606739 80.44025478 133.99177172 199.74490111 165.39962456z m0 0" p-id="6401"></path><path d="M510.64426484 887.60032276c-208.10526554 0-376.44231517-64.84930641-376.44231383-169.24087265v106.4251683c0 104.61752232 168.33704964 188.67306909 376.44231383 188.6730691S887.08658 929.17618465 887.08658 824.78461841v-106.4251683c0 104.39156621-168.33704964 169.24087263-376.44231516 169.24087265z m0 0" p-id="6402"></path><path d="M333.94685212 803.31882125v-121.11229369c-118.4008247-25.98491352-199.74490112-79.5364318-199.74490111-150.71249919v106.42516831c0 71.17606739 80.44025478 133.08794872 199.74490111 165.39962457z m176.69741272-794.46049225c-208.10526554 0-376.44231517 84.28150287-376.44231383 188.6730691v62.81570432c0 104.61752232 168.33704964 188.67306909 376.44231383 188.67306908S887.08658 364.73866864 887.08658 260.34710242v-62.81570432c0-104.61752232-168.33704964-188.67306909-376.44231516-188.6730691z m217.36945293 662.27636517V790.43934186c96.25715789-34.11932182 159.07286223-90.60826384 159.07286223-153.64992426v-106.19921222c0 63.71952732-62.81570433 112.75192928-159.07286223 140.54448879z m0-187.76924474v118.40082333c96.25715789-34.11932182 159.07286223-90.60826384 159.07286223-153.64992423v-106.42516831c0 63.94548341-62.81570433 112.97788536-159.07286223 141.67426921z m0 0" p-id="6403"></path></svg>
