<?xml version="1.0" standalone="no"?><!DOCTYPE svg PUBLIC "-//W3C//DTD SVG 1.1//EN" "http://www.w3.org/Graphics/SVG/1.1/DTD/svg11.dtd"><svg t="1578471813723" class="icon" viewBox="0 0 1024 1024" version="1.1" xmlns="http://www.w3.org/2000/svg" p-id="6633" xmlns:xlink="http://www.w3.org/1999/xlink" width="200" height="200"><defs><style type="text/css"></style></defs><path d="M888.83900215 884.45456697h-44.83574919v1.31226569H228.98800422c-20.55883156 0-26.46402711-12.02910334-26.46402711-34.99375531V605.81679013c0-14.43492375-12.02910334-26.46402711-26.4640271-26.46402711h-17.93430021c-14.43492375 0-26.46402711 12.02910334-26.46402711 26.46402711v326.97290118c0 14.43492375 12.02910334 26.46402711 26.46402711 26.46402712h730.93206331c14.43492375 0 26.46402711-12.02910334 26.46402711-26.46402712v-21.43367532c-0.43742189-14.87234565-12.46652524-26.901449-26.68273807-26.90144902z m90.32762996-605.61067673c-7.21746254-25.58918332-14.43492375-41.11766181-21.43367534-66.26942454-42.21121785-83.32887966-61.45778243-129.03947265-103.88770993-153.09767806H203.3988209c-38.49313045 14.43492375-71.29977631 68.8939559-86.8282548 103.88770994l-21.43367535 49.20996812c-14.43492375 32.5879349-29.08855846 66.26942453-36.30602098 100.38833607-7.21746254 41.11766181 0 83.32887966 14.43492376 115.91681457 29.08855846 66.26942453 85.51598912 107.60579731 142.38084167 115.91681326 56.86485254 8.5297282 128.16462885-25.58918332 164.03322796-83.32887966 36.306021 49.20996813 85.51598912 83.32887966 142.38084166 83.32887966 56.86485254 0 107.60579731-32.80664586 142.38084169-83.32887966 42.21121785 66.26942453 120.50974444 100.38833477 185.90432389 74.79915276 71.95590914-16.40332227 166.00162647-101.9193127 128.82076171-257.42281246z m-103.88771122 300.0714509H624.41743813c-14.43492375 0-26.46402711 12.02910334-26.46402711 26.4640271s12.02910334 26.46402711 26.46402711 26.46402841h250.86148276c14.43492375 0 26.46402711-12.02910334 26.46402841-26.46402841 0.43742189-14.21621281-11.59168146-26.46402711-26.46402841-26.4640271z m-3.49937514 96.88895961h-183.27979256c-14.43492375 0-26.46402711 12.02910334-26.46402709 26.46402712s12.02910334 26.46402711 26.46402709 26.46402841h184.59205824c14.43492375 0 26.46402711-12.02910334 25.58918332-26.46402841-0.43742189-14.43492375-12.24781429-26.46402711-26.901449-26.46402712z m0 0" p-id="6634"></path><path d="M526.87234565 801.12568732c0 14.43492375 12.02910334 26.46402711 26.46402711 26.46402712h322.16125908c14.43492375 0 26.46402711-10.71683767 26.46402841-26.46402712 0-14.43492375-12.02910334-26.46402711-26.46402841-26.46402711H553.33637276c-14.43492375 0-26.46402711 11.59168146-26.46402711 26.46402711z m0 0" p-id="6635"></path></svg>
