<?xml version="1.0" standalone="no"?><!DOCTYPE svg PUBLIC "-//W3C//DTD SVG 1.1//EN" "http://www.w3.org/Graphics/SVG/1.1/DTD/svg11.dtd"><svg t="1564739069043" class="icon" viewBox="0 0 1024 1024" version="1.1" xmlns="http://www.w3.org/2000/svg" p-id="729" xmlns:xlink="http://www.w3.org/1999/xlink" width="200" height="200"><defs><style type="text/css"></style></defs><path d="M512.12945383 92.5696c56.31241482 0 111.0713837 11.13302914 162.72346074 33.01072592 49.96917728 21.23042765 94.88965531 51.5226232 133.59634962 90.22931755 38.70669431 38.70669431 68.99888987 83.62717235 90.22931754 133.59634962 21.8776968 51.65207703 33.01072592 106.41104592 33.01072592 162.72346074s-11.13302914 111.0713837-33.01072592 162.72346074c-21.23042765 49.96917728-51.5226232 94.88965531-90.22931754 133.59634962-38.70669431 38.70669431-83.62717235 68.99888987-133.59634962 90.22931754-51.65207703 21.8776968-106.41104592 33.01072592-162.72346074 33.01072592s-111.0713837-11.13302914-162.72346074-33.01072592c-49.96917728-21.23042765-94.88965531-51.5226232-133.59634962-90.22931754-38.70669431-38.70669431-68.99888987-83.62717235-90.22931755-133.59634962-21.8776968-51.65207703-33.01072592-106.41104592-33.01072592-162.72346074s11.13302914-111.0713837 33.01072592-162.72346074c21.23042765-49.96917728 51.5226232-94.88965531 90.22931755-133.59634962 38.70669431-38.70669431 83.62717235-68.99888987 133.59634962-90.22931755 51.65207703-21.8776968 106.41104592-33.01072592 162.72346074-33.01072592m0-77.6722963C238.72297086 14.8973037 14.8973037 238.59351703 14.8973037 512.12945383c0 273.40648297 223.69621333 497.23215013 497.23215013 497.23215012 273.40648297 0 497.23215013-223.69621333 497.23215012-497.23215012S785.5359368 14.8973037 512.12945383 14.8973037z" p-id="730"></path><path d="M804.04783408 331.92972642c-14.7577363-14.7577363-41.42522469-14.88719013-57.21859161-0.25890766l-0.12945383 0.12945383-273.40648295 272.50030617-152.23770075-152.23770073c-6.99050667-6.99050667-18.12353581-11.3919368-28.35038814-11.39193679-10.22685235 0-21.35988148 4.53088395-28.35038816 11.39193679-14.7577363 14.7577363-14.88719013 41.42522469-0.25890766 57.2185916L444.68400987 690.77573531c6.99050667 8.02613728 17.34681283 12.55702124 28.60929582 12.55702122 9.96794469 0 19.67698173-3.3657995 28.09148048-9.5795832l0.64726914-0.38836148 302.92195555-303.69867852 0.25890766-0.25890764c14.7577363-16.31118222 14.23992098-41.94304-1.16508444-57.47749927z" p-id="731"></path></svg>