<?xml version="1.0" standalone="no"?><!DOCTYPE svg PUBLIC "-//W3C//DTD SVG 1.1//EN" "http://www.w3.org/Graphics/SVG/1.1/DTD/svg11.dtd"><svg t="1572599929529" class="icon" viewBox="0 0 1248 1024" version="1.1" xmlns="http://www.w3.org/2000/svg" p-id="6298" xmlns:xlink="http://www.w3.org/1999/xlink" width="243.75" height="200"><defs><style type="text/css"></style></defs><path d="M119.41199575 979.10883006V-1.70191965c25.91978155 0 522.16276765 0.07985266 537.64285669 0 0 45.82864555-1.47596515 90.88683918-0.02632591 133.33708459 2.83258994 81.61686301 48.24880697 124.85159936 129.32073927 125.02534598 44.95026062 0.09301561 89.90139961 0.01316295 134.0812106 0.01316182v256.69955584c-150.26681401 13.32493312-202.58549646 47.50380487-292.87299983 139.40065394-1.67603655-0.17286827-209.8995109-0.53176889-301.03819491 0.39926557-41.93251669 0.41242851-67.91898909 23.89888455-70.17944519 59.40717795-2.34118713 36.61219613 23.51278194 65.35140579 65.15221163 70.3918023 16.86303858 2.00861241 190.00381099 0.89154674 252.25674183 0.89154561-1.76817493 44.68437675 0.94507463 80.51296029 8.91107669 110.94136945 8.88387357 33.96563741 21.89027214 51.81323833 42.18436039 84.30203222-151.10395563 0-303.11261981 2.38155207-455.40120917-0.09213838-16.84987677-0.26676224-50.03102322 0.09301561-50.03102209 0.0930156z m404.30577096-458.85946196c61.22975801 0 122.43231403 0.41242851 183.6611948-0.11934038 51.42713571-0.45279346 78.77023175-22.40887922 80.1400195-62.81190171 1.42331563-42.09134592-23.43292928-67.9584768-74.15542557-68.59730149a15608.23297024 15608.23297024 0 0 0-380.088353-0.0930156c-49.8186661 0.58529678-77.64088149 27.622144-77.02838158 67.12045795 0.61162155 39.12625152 30.05546837 63.71573419 79.54155975 64.3019082 62.65219641 0.74412487 125.30439282 0.18603122 187.9293861 0.19919303z" fill="" p-id="6299"></path><path d="M1119.94382267 863.2069179c-31.09355861 123.02989539-138.76270649 195.57685362-267.0058678 178.47425592-110.71497216-14.74912597-196.72112128-114.78484651-196.36134344-228.35961287 0.37206243-115.44911872 87.14866233-212.75842674 202.33189604-226.92313316 125.58343965-15.42656114 231.45808669 57.73201863 261.28803727 180.3099978 6.91475001 27.63530695 9.58851186 57.57231218-0.25272207 96.49849231z m-196.95980315-84.99526202c0-27.74148437 0.18603122-45.26967353-0.01316297-69.07466411-0.22639616-25.90661859-9.21644942-39.44566443-31.46562103-39.53868004-23.24689693-0.1465435-33.42070557 20.98644082-34.03232825 34.55093305-1.62338702 36.94477085-2.47456768 92.36280547-2.50089246 127.95095154-0.01316295 8.75049301-1.68832227 20.6538661 14.09713835 19.96239189 36.98513579-1.55669618 101.37918237-0.30712718 138.64336612-0.10705577 25.91978155 0.10705579 38.35492352-19.90886286 38.60764559-37.68889687 0.25272206-17.50186325-11.99551147-36.49285575-38.75418909-36.13395511-26.7042725 0.35890062-53.42258517 0.07897543-84.58195626 0.07897542zM723.55052589-1.71332701c55.96296533 0 107.3769381-0.06669085 157.02273594 0.06668971 27.98104349 0.07897543 41.63942969 14.85530453 41.74560824 42.35723092 0.15970645 48.18387171-0.63794745 96.77841635-0.63794744 147.4737118H771.66682953c-27.06405035 0-48.11630365-22.16932011-48.11630364-50.68213248V-1.71420538z" fill="" p-id="6300"></path></svg>