<?xml version="1.0" standalone="no"?><!DOCTYPE svg PUBLIC "-//W3C//DTD SVG 1.1//EN" "http://www.w3.org/Graphics/SVG/1.1/DTD/svg11.dtd"><svg t="1564738729266" class="icon" viewBox="0 0 1024 1024" version="1.1" xmlns="http://www.w3.org/2000/svg" p-id="7334" xmlns:xlink="http://www.w3.org/1999/xlink" width="200" height="200"><defs><style type="text/css"></style></defs><path d="M979.3328035 312.59490413c-25.54963975-60.40204771-62.12213659-114.64694659-108.70302282-161.22783282-46.58088625-46.58088625-100.82578511-83.15448219-161.22783282-108.70412194-62.54089305-26.45529675-128.9692969-39.86869276-197.43652814-39.86869273-68.46283485 0-134.8890405 13.413396-197.42993356 39.86869273-60.40204771 25.54963975-114.64804569 62.12323569-161.22783282 108.70412194-46.58308443 46.58198535-83.15558129 100.82688421-108.70741924 161.22783282-26.45529675 62.54199215-39.86979185 128.9692969-39.86979184 197.43652815 0 68.46613213 13.413396 134.89233779 39.86759365 197.43652815 25.54963975 60.40094861 62.12213659 114.64694659 108.70522103 161.22783282 46.58088625 46.58088625 100.82358693 83.1533831 161.22563462 108.70302282 62.54089305 26.45419765 128.9692969 39.86649455 197.43652816 39.86649456s134.89233779-13.41229689 197.43652814-39.86649456c60.40204771-25.54963975 114.64804569-62.12213659 161.22783282-108.70302282 46.58088625-46.58308443 83.1533831-100.82688421 108.70302282-161.22783282 26.45309855-62.54199215 39.86759365-128.97039599 39.86759366-197.43652815C1019.20039716 441.56420103 1005.78700117 375.13689631 979.3328035 312.59490413zM914.29365996 679.98610584c-21.99075935 51.9939455-53.47223276 98.68913796-93.57723164 138.79303776s-86.80238955 71.58976959-138.79303777 93.58052893c-53.82394422 22.76562367-111.00673293 34.30945341-169.96126814 34.30945341-58.95013884 0-116.12853114-11.54382974-169.95247534-34.30945341-51.9939455-21.99075935-98.68913796-53.47443094-138.79303776-93.58052893s-71.58976959-86.80129045-93.58272715-138.79303776c-22.76562367-53.82394422-34.30945341-111.00453474-34.3094534-169.95467356s11.54382974-116.13072934 34.3094534-169.95357445c21.99295755-51.99284642 53.47662914-98.69023706 93.58272715-138.79413686 40.10389978-40.10389978 86.80129045-71.58976959 138.79303776-93.58052893 53.82394422-22.76562367 111.00233654-34.30835431 169.95247534-34.30835431s116.13072934 11.54273065 169.95467354 34.30835431c51.99284642 21.99075935 98.68913796 53.47662914 138.79303777 93.58052893 40.10389978 40.10389978 71.58976959 86.80129045 93.58272714 138.79413686 22.76562367 53.82284513 34.30835431 111.00343562 34.30835431 169.95357445S937.05818452 626.16216161 914.29365996 679.98610584z" p-id="7335"></path><path d="M507.42834181 243.82432177c-21.24557067 0-38.46844148 17.2228708-38.46844148 38.46844147l0 293.48783011c0 21.24557067 17.2228708 38.46844148 38.46844148 38.46844149s38.46844148-17.2228708 38.46844148-38.46844149L545.89678329 282.29276324C545.89678329 261.04719256 528.67391249 243.82432177 507.42834181 243.82432177z" p-id="7336"></path><path d="M507.1085042 654.10124111c-21.24557067 0-38.46844148 17.2228708-38.46844148 38.46844149l0 38.74211695c0 21.24557067 17.2228708 38.46844148 38.46844148 38.46844148s38.46844148-17.2228708 38.46844148-38.46844148l0-38.74211695C545.57694568 671.32411191 528.35407488 654.10124111 507.1085042 654.10124111z" p-id="7337"></path></svg>