<?xml version="1.0" standalone="no"?><!DOCTYPE svg PUBLIC "-//W3C//DTD SVG 1.1//EN" "http://www.w3.org/Graphics/SVG/1.1/DTD/svg11.dtd"><svg t="1572599942646" class="icon" viewBox="0 0 1024 1024" version="1.1" xmlns="http://www.w3.org/2000/svg" p-id="6417" xmlns:xlink="http://www.w3.org/1999/xlink" width="200" height="200"><defs><style type="text/css"></style></defs><path d="M328.85664277 62.80772451H98.91537383C86.20008857 62.80772451 75.92203847 73.10950508 75.92203847 85.80193877v229.93951113c0 12.71616504 10.2780501 22.99509404 22.99333536 22.99509405H328.85664277c12.71616504 0 22.99333623-10.2780501 22.99333624-22.99509405V85.80193877C351.8491001 73.10950508 341.57192891 62.80772451 328.85664277 62.80772451z m0 321.91549101H98.91537383c-12.71528613 0-22.99333623 10.2780501-22.99333536 22.99421515v229.94126806c0 12.71528613 10.2780501 22.99157842 22.99333536 22.99157842H328.85664277c12.71616504 0 22.99333623-10.27629229 22.99333624-22.99157842V407.71743066c-0.00087891-12.71616504-10.2780501-22.99421513-22.99333624-22.99421514z m0 321.91636993H98.91537383c-12.71528613 0-22.99333623 10.27892901-22.99333536 22.99421514v206.9461749c0 12.71528613 10.2780501 22.99421513 22.99333536 22.99421513H328.85664277c12.71616504 0 22.99333623-10.27892901 22.99333624-22.99421513V729.63380058c-0.00087891-12.71528613-10.2780501-22.99421513-22.99333624-22.99421513zM926.69919541 62.80772451H420.83174375c-12.71528613 0-22.99245732 10.30178057-22.99245644 22.99421426v229.93951113c0 12.71616504 10.27717119 22.99509404 22.99245644 22.99509405h505.86833057c12.71704395 0 22.99509404-10.2780501 22.99509404-22.99509405V85.80193877C949.69428945 73.10950508 939.41623935 62.80772451 926.69919541 62.80772451z m0 321.91549101H420.83174375c-12.71528613 0-22.99245732 10.2780501-22.99245644 22.99421515v229.94126806c0 12.71528613 10.27717119 22.99157842 22.99245644 22.99157842h505.86833057c12.71704395 0 22.99509404-10.27629229 22.99509404-22.99157842V407.71743066c-0.00087891-12.71616504-10.27892901-22.99421513-22.99597295-22.99421514z m-2.20608018 322.23893204H422.99387862c-13.91236963 0-25.20117422 11.28880459-25.20117422 25.26972978v202.09455615c0 13.93522207 11.26683106 25.2714876 25.20117422 25.2714876H924.5159668c13.91061182-0.02285156 25.17832266-11.33538662 25.17832265-25.29346025V732.20990469c0-13.95895254-11.26770996-25.24775713-25.20117422-25.24775713z" p-id="6418"></path></svg>
