<?xml version="1.0" standalone="no"?>
<!DOCTYPE svg PUBLIC "-//W3C//DTD SVG 1.1//EN" "http://www.w3.org/Graphics/SVG/1.1/DTD/svg11.dtd" >
<!--
2013-9-30: Created.
-->
<svg>
<metadata>
Created by iconfont
</metadata>
<defs>

<font id="xfont" horiz-adv-x="1024" >
  <font-face
    font-family="xfont"
    font-weight="500"
    font-stretch="normal"
    units-per-em="1024"
    ascent="896"
    descent="-128"
  />
    <missing-glyph />
    
    <glyph glyph-name="question-circle" unicode="&#58915;" d="M512 895.69735386c-279.21535795 0-506.37406943-227.16429422-506.37406943-506.38858451 0-279.19637669 227.15982803-506.3405731 506.37406943-506.3405731s506.37406943 227.14419641 506.37406943 506.3405731c0 279.22317374-227.15982803 506.3885845-506.37406943 506.38858451zM563.09195213 19.532733649999955h-101.6881586v101.6881586h101.6881586v-101.6881586zM724.30643879 472.91672557c-14.88130288-26.78701509-43.9840309-59.36219601-87.30483451-97.72107658-29.10272805-25.79440717-48.11524495-44.8147399-57.04536651-57.04536654-8.92900503-12.23732589-15.5467633-26.29015287-19.84099282-42.16294711-4.30204531-15.8739108-6.78300681-41.66831797-7.43953489-77.38433809h-85.81536438c-0.33273021 11.90571222-0.49574569 20.83360071-0.49574566 26.7870151 0 35.04832661 4.96080648 65.30667804 14.88130287 90.77617083 7.27093669 19.17441583 19.0125169 38.51966295 35.21804136 58.03685788 11.90571222 14.21584245 33.31321672 34.97240161 64.23814512 62.25404585 30.91711259 27.28276079 51.00709477 49.02411203 60.26994654 65.22963648 9.25503598 16.19882516 13.88869495 33.89381977 13.88869497 53.07605143 0 34.72341222-13.56378056 65.22963649-40.67571005 91.5209059-27.11974531 26.2912694-60.35480392 39.43411275-99.70629241 39.43411275-38.03284962 0-69.77955464-11.90459568-95.24011508-35.71490358-25.46949281-23.80919137-42.16294712-61.01244854-50.09934422-111.60865498l-91.76877875 10.9131043c8.2635446 67.78652301 32.81635449 119.70918413 73.66289585 155.75793446 40.83760898 36.03981799 94.82252748 54.06865934 161.95810515 54.06865934 71.09707696 0 127.80859671-19.34524712 170.14349166-58.03685788 42.32596259-38.69161077 63.49341005-85.48933341 63.49341005-140.38088592 0.00111653-31.74670503-7.43730181-61.01356506-22.31972121-87.80058019z"  horiz-adv-x="1024" />

    
    <glyph glyph-name="question-circle-o" unicode="&#58914;" d="M512 81.68564760000004m-53.85930309 0a1.68310322 1.68310322 0 1 1 107.71860618 0 1.68310322 1.68310322 0 1 1-107.71860618 0ZM512-115.40349550999997C234.8041201-115.40349550999997 9.31317116 110.08745342999998 9.31317116 387.28333334S234.8041201 889.97016217 512 889.97016217s502.68682884-225.49094893 502.68682884-502.68682883S789.1958799-115.40349550999997 512-115.40349550999997zM512 817.83460223C274.58819198 817.83460223 81.4487311 624.69514135 81.4487311 387.28333334c0-237.37590183 193.13946088-430.5512689 430.5512689-430.55126891 237.37590183 0 430.5512689 193.17536708 430.5512689 430.55126891C942.5512689 624.69514135 749.37590183 817.83460223 512 817.83460223zM512 205.84929432c-19.82022354 0-35.90620206 16.08597852-35.90620206 35.90620206l0 60.7173877c0 58.74254656 44.88275257 103.62529915 84.52319965 143.22984C589.66511506 474.78674775 619.71860618 504.80433267 619.71860618 528.75376944c0 59.85563884-48.32974798 108.54444883-107.71860618 108.54444883-60.39423187 0-107.71860618-46.60625028-107.71860618-106.10282708 0-19.82022354-16.08597852-35.90620206-35.90620206-35.90620205s-35.90620206 16.08597852-35.90620207 35.90620205c0 98.09574403 80.53761122 177.91523121 179.53101031 177.91523121s179.53101031-80.89667324 179.53101031-180.35685296c0-53.75158448-40.75353933-94.46921762-80.14264301-133.85832126C580.14997152 363.72886478 547.90620206 331.48509534000004 547.90620206 302.50879026999996l0-60.71738769C547.90620206 221.97117905000005 531.82022354 205.84929432 512 205.84929432z"  horiz-adv-x="1024" />

    
    <glyph glyph-name="password" unicode="&#58948;" d="M798.276 459.332v110.524c0 0-0.034 257.843-257.843 257.843s-257.843-257.843-257.843-257.843v-110.524h-110.524v-515.721h736.734v515.721h-110.524ZM577.263 174.865v-120.73h-73.66v120.73c-21.914 12.766-36.83 36.284-36.83 63.454 0 40.721 33.007 73.694 73.66 73.694 40.653 0 73.66-32.973 73.66-73.694 0.034-27.17-14.882-50.688-36.83-63.454M724.616 459.366h-368.367v110.012c0.41 30.857 11.264 184.661 184.183 184.661s183.774-153.805 184.183-184.183v-110.49Z"  horiz-adv-x="1024" />

    
    <glyph glyph-name="coffee" unicode="&#59005;" d="M907.46666666 477.86666667q0 42.66666667-29.86666666 72.53333334t-72.53333333 29.86666666l-34.13333334 0 0-204.8 34.13333334 0q42.66666667 0 72.53333333 29.86666667t29.86666666 72.53333333z m-887.46666666-409.6l955.73333332 0q0-56.53333333-39.99999999-96.53333333t-96.53333334-40l-682.66666666 0q-56.53333333 0-96.53333333 40t-40 96.53333333z m989.86666667 409.6q0-84.8-60-144.8t-144.8-60l-34.13333334 0 0-17.06666666q0-49.06666667-35.20000001-84.26666667t-84.26666665-35.2l-375.46666667 0q-49.06666667 0-84.26666667 35.2t-35.2 84.26666667l0 392.53333333q0 13.86666667 10.13333334 24t24 10.13333333l614.4 0q84.8 0 144.8-60t60-144.8z"  horiz-adv-x="1024" />

    
    <glyph glyph-name="refresh" unicode="&#59113;" d="M512.00539456 892.83857112c-279.62494311 0-506.2202667-226.65034812-506.22026669-506.22026671s226.59532359-506.2202667 506.22026669-506.22026667c279.56883967 0 506.2202667 226.65034812 506.22026669 506.22026667 0 279.60228595-226.6751631 506.2202667-506.22026669 506.22026671zM752.64707767 349.31598982l-144.17721135 104.49589508 56.44761375 25.201234c-47.50019387 86.19538428-153.6996915 123.24199667-245.20116658 82.39221834-96.51086498-43.07125878-139.79898515-156.24376675-96.72988419-252.75355284 43.07125878-96.45368263 156.27073956-139.79898515 252.72550111-96.72988417 44.1059357 19.72791179 76.96960502 54.15276724 95.65960316 94.80834135l47.03841939-25.12031558c-24.10505909-50.75850908-65.62052631-93.58377586-120.94930798-118.31999866-123.43727978-55.05473795-268.07410779 0.32906826-323.15905527 123.70700788-55.11299921 123.35204571 0.05178779 267.91766551 123.43727979 322.9950606 118.34912929 52.86454593 256.17046814 3.82905983 315.85158213-109.17837456l57.46287024 25.66732413-18.41811225-177.1757447z"  horiz-adv-x="1024" />

    
    <glyph glyph-name="warning-circle" unicode="&#58894;" d="M512 891.77828325c-279.13496676 0-502.44494992-223.30998319-502.44494992-502.44494992s223.30998319-502.44494992 502.44494992-502.44494992 502.44494992 223.30998319 502.44494992 502.44494992c0 279.13496676-223.30998319 502.44494992-502.44494992 502.44494992zM567.82721666 110.19836656999996h-111.65443332v111.65443333h111.65443332v-111.65443333zM567.82721666 333.50611667h-111.65443332v334.96329996h111.65443332v-334.96329996z"  horiz-adv-x="1024" />

    
    <glyph glyph-name="phone" unicode="&#58949;" d="M879.284 89.834c-28.589 33.264-81.034 87.387-96.332 100.137-15.319 12.749-54.495 36.74-107.673 0-39.793-43.752-74.584-30.387-92.738-26.85-23.99 4.673-49.029 9.117-163.903 148.545-61.641 74.833-70.101 122.971-93.667 172.847-23.547 49.857 90.498 89.939 70.253 149.048l-93.666 173.31c-18.158 20.862-30.907 24.359-38.768 23.47-115.437-6.142-125.19-155.846-125.19-155.846s-49.047-234.235 263.111-549.463c43.618-44.044 188.3-144.336 228.673-159.983 30.442-11.821 93.646-24.765 93.646-24.765s141.053-18.648 166.121 111.1c-0.015 0.038 0.036 0.336 0.196 0.958-0.061-0.325-0.135-0.636-0.196-0.958 0.117-0.341 5.465 20.582-9.867 38.451z"  horiz-adv-x="1024" />

    
    <glyph glyph-name="warning-circle-o" unicode="&#59027;" d="M979.3328035 583.40509587c-25.54963975 60.40204771-62.12213659 114.64694659-108.70302282 161.22783282-46.58088625 46.58088625-100.82578511 83.15448219-161.22783282 108.70412194-62.54089305 26.45529675-128.9692969 39.86869276-197.43652814 39.86869273-68.46283485 0-134.8890405-13.413396-197.42993356-39.86869273-60.40204771-25.54963975-114.64804569-62.12323569-161.22783282-108.70412194-46.58308443-46.58198535-83.15558129-100.82688421-108.70741924-161.22783282-26.45529675-62.54199215-39.86979185-128.9692969-39.86979184-197.43652815 0-68.46613213 13.413396-134.89233779 39.86759365-197.43652815 25.54963975-60.40094861 62.12213659-114.64694659 108.70522103-161.22783282 46.58088625-46.58088625 100.82358693-83.1533831 161.22563462-108.70302282 62.54089305-26.45419765 128.9692969-39.86649455 197.43652816-39.86649456s134.89233779 13.41229689 197.43652814 39.86649456c60.40204771 25.54963975 114.64804569 62.12213659 161.22783282 108.70302282 46.58088625 46.58308443 83.1533831 100.82688421 108.70302282 161.22783282 26.45309855 62.54199215 39.86759365 128.97039599 39.86759366 197.43652815C1019.20039716 454.43579897 1005.78700117 520.86310369 979.3328035 583.40509587zM914.29365996 216.01389415999995c-21.99075935-51.9939455-53.47223276-98.68913796-93.57723164-138.79303776s-86.80238955-71.58976959-138.79303777-93.58052893c-53.82394422-22.76562367-111.00673293-34.30945341-169.96126814-34.30945341-58.95013884 0-116.12853114 11.54382974-169.95247534 34.30945341-51.9939455 21.99075935-98.68913796 53.47443094-138.79303776 93.58052893s-71.58976959 86.80129045-93.58272715 138.79303776c-22.76562367 53.82394422-34.30945341 111.00453474-34.3094534 169.95467356s11.54382974 116.13072934 34.3094534 169.95357445c21.99295755 51.99284642 53.47662914 98.69023706 93.58272715 138.79413686 40.10389978 40.10389978 86.80129045 71.58976959 138.79303776 93.58052893 53.82394422 22.76562367 111.00233654 34.30835431 169.95247534 34.30835431s116.13072934-11.54273065 169.95467354-34.30835431c51.99284642-21.99075935 98.68913796-53.47662914 138.79303777-93.58052893 40.10389978-40.10389978 71.58976959-86.80129045 93.58272714-138.79413686 22.76562367-53.82284513 34.30835431-111.00343562 34.30835431-169.95357445S937.05818452 269.83783839 914.29365996 216.01389415999995zM507.42834181 652.17567823c-21.24557067 0-38.46844148-17.2228708-38.46844148-38.46844147l0-293.48783011c0-21.24557067 17.2228708-38.46844148 38.46844148-38.46844149s38.46844148 17.2228708 38.46844148 38.46844149L545.89678329 613.70723676C545.89678329 634.95280744 528.67391249 652.17567823 507.42834181 652.17567823zM507.1085042 241.89875888999995c-21.24557067 0-38.46844148-17.2228708-38.46844148-38.46844149l0-38.74211695c0-21.24557067 17.2228708-38.46844148 38.46844148-38.46844148s38.46844148 17.2228708 38.46844148 38.46844148l0 38.74211695C545.57694568 224.67588808999994 528.35407488 241.89875888999995 507.1085042 241.89875888999995z"  horiz-adv-x="1024" />

    
    <glyph glyph-name="info-circle" unicode="&#58896;" d="M512 891.55548858c-276.76325007 0-501.09488253-224.33163246-501.09488253-501.09488253s224.33163246-501.09488253 501.09488253-501.09488252c276.76325007 0 501.09488253 224.33163246 501.09488253 501.09488252s-224.33163246 501.09488253-501.09488253 501.09488253zM494.06524452 677.3185677c29.89163082 0 54.29378134-24.30513958 54.29378134-54.29489638s-24.30513958-54.19677041-54.29489641-54.19677043-54.2948964 24.30513958-54.2948964 54.29489641c0.09812599 29.89163082 24.40326559 54.19677041 54.2948964 54.1967704zM583.54388499 103.60264440000003h-143.08553986c-20.09129721 0-36.35902586 16.26884374-36.35902584 36.35902586s16.26884374 36.35902586 36.35902584 36.35902585h35.18374408v248.24426807h-35.28187005c-19.99317121 0-36.35902586 16.26884374-36.35902587 36.35902587s16.26772865 36.35902586 36.35902587 36.35902585h72.13152587c19.79691923 0 35.77138497-16.07259173 35.77138497-35.77138496v-285.19204991h35.28187007c20.09129721 0 36.35902586-16.26884374 36.35902585-36.35902585s-16.26884374-36.35902586-36.35902585-36.35902586v0z"  horiz-adv-x="1024" />

    
    <glyph glyph-name="linechart" unicode="&#59142;" d="M1012.01540741 40.018526820000034l0-97.09037037L11.98459259-57.07184355000004 11.98459259 825.07184355l97.09037038 0 0-785.05331673L1012.01540741 40.018526820000034zM960.95800889 705.96137718l-231.34450726-43.73435733 55.771136-55.07208533-216.4775443-214.29543822-97.64621274 91.79409067-262.668288-261.94981927 82.41758816-82.66031407 182.29930666 181.82356385 97.34765984-91.51981037 297.77616593 294.78578252 51.68848593-51.04768948L960.95800889 705.96137718z"  horiz-adv-x="1024" />

    
    <glyph glyph-name="success-circle" unicode="&#58897;" d="M512 889.28660068c-276.12307856 0-499.95326735-223.83018879-499.95326735-499.95326735s223.83018879-499.95326735 499.95326735-499.95326735 499.95326735 223.83018879 499.95326735 499.95326735c0 276.12307856-223.83018879 499.95326735-499.95326735 499.95326735zM473.53470662 187.70329161999996v0l-70.70672408-70.70672409-212.12128328 212.12128327 70.70672407 70.70672409 141.39789409-141.41344818 353.51917735 353.51917736 70.7067241-70.7067241-353.50362325-353.51917735z"  horiz-adv-x="1024" />

    
    <glyph glyph-name="cart" unicode="&#58953;" d="M955.423647 565.855838L852.08507 275.39344300000005c-14.410198-40.402175-52.888558-67.575048-95.845928-67.575048L352.7843 207.818395c-48.409546 0-90.355891 34.474163-99.758028 81.935104l-68.38346 345.936847-22.624277 103.757109L86.263178 739.447455c-12.062733 0-21.815865 9.717316-21.815865 21.74014 0 12.06478 9.757225 21.775956 21.815865 21.775956l93.305059 0c0.681522 0 1.266853-0.344854 1.914606-0.38988 1.534959-0.141216 2.963495-0.417509 4.41659-0.87595 1.311879-0.417509 2.506077-0.848321 3.685949-1.502213 1.27504-0.652869 2.347464-1.416256 3.463891-2.300392 1.124614-0.88516 2.078335-1.77032 3.000334-2.845815 0.838088-1.039679 1.569752-2.152013 2.214435-3.345188 0.730641-1.294482 1.351787-2.609431 1.807159-4.025687 0.194428-0.653893 0.661056-1.161453 0.811482-1.842974l22.620184-103.833857 663.96097 0c23.387663 0 45.404096-11.373025 58.870806-30.463826 13.546527-19.09387 16.878412-43.642986 9.080819-65.701374l0 0L955.423647 565.855838zM910.746098 606.421742c-5.387707 7.647167-13.865799 12.063757-23.263843 12.063757L232.475214 618.485499l63.304791-320.290747c5.376451-27.122731 29.355585-46.796816 57.008388-46.796816L756.247328 251.39793599999996c24.549116 0 46.561455 15.531741 54.78986 38.606273l103.334483 290.461371c3.118014 8.828063 1.842974 18.286482-3.617387 25.961278l0 0L910.746098 606.421742zM336.95273 160.58565099999998c48.482201 0 87.895863-39.35431 87.895863-87.75874 0-48.409546-39.422871-87.790462-87.895863-87.790462-48.445362 0-87.853907 39.388079-87.853907 87.790462C249.099846 121.22213099999999 288.504298 160.58565099999998 336.95273 160.58565099999998L336.95273 160.58565099999998 336.95273 160.58565099999998zM336.95273 28.56584799999996c24.426319 0 44.291762 19.851117 44.291762 44.246737 0 24.376177-19.868513 44.200688-44.291762 44.200688-24.399713 0-44.246737-19.826558-44.246737-44.200688C292.705993 48.39956900000004 312.562227 28.56584799999996 336.95273 28.56584799999996L336.95273 28.56584799999996 336.95273 28.56584799999996zM725.312782 160.58565099999998c48.457642 0 87.862094-39.35431 87.862094-87.75874 0-48.409546-39.399335-87.790462-87.862094-87.790462-48.431036 0-87.835488 39.388079-87.835488 87.790462C637.477294 121.22213099999999 676.890956 160.58565099999998 725.312782 160.58565099999998L725.312782 160.58565099999998 725.312782 160.58565099999998zM725.312782 28.56584799999996c24.431435 0 44.296879 19.851117 44.296879 44.246737 0 24.376177-19.874653 44.200688-44.296879 44.200688-24.426319 0-44.274366-19.826558-44.274366-44.200688C681.033299 48.39956900000004 700.881346 28.56584799999996 725.312782 28.56584799999996L725.312782 28.56584799999996 725.312782 28.56584799999996zM725.312782 28.56584799999996"  horiz-adv-x="1024" />

    
    <glyph glyph-name="upload" unicode="&#60581;" d="M752 54.09523822999995q0 13.92-10.14857156 24.13714313t-24.13714313 10.14857156-24.13714312-10.14857156-10.14857157-24.13714313 10.14857157-24.13714312 24.13714312-10.14857157 24.13714313 10.14857157 10.14857156 24.13714312zM889.14285688 54.09523822999995q0 13.92-10.14857157 24.13714313t-24.13714312 10.14857156-24.13714313-10.14857156-10.14857156-24.13714313 10.14857156-24.13714312 24.13714313-10.14857157 24.13714312 10.14857157 10.14857156 24.13714312zM957.71428531 174.09523822999995l0-171.42857156q0-21.39428531-15.01714312-36.41142844t-36.41142844-15.01714312l-788.57142844 0q-21.39428531 0-36.41142844 15.01714312t-15.01714312 36.41142844l0 171.42857156q0 21.39428531 15.01714312 36.41142844t36.41142844 15.01714313l228.75428531 0q11.24571469-30.03428531 37.78285688-49.30285688t59.17714312-19.26857156l137.14285688 0q32.70857156 0 59.17714312 19.26857156t37.78285688 49.30285688l228.75428531 0q21.39428531 0 36.41142844-15.01714313t15.01714312-36.41142844zM783.61142844 521.27238136q-9.12-21.39428531-31.61142844-21.39428532l-137.14285687 0 0-239.99999999q0-13.92-10.14857157-24.13714313t-24.13714312-10.14857156l-137.14285688 0q-13.92 0-24.13714312 10.14857156t-10.14857156 24.13714312l0 240.00000001-137.14285688-1e-8q-22.49142844 0-31.61142844 21.39428532-9.12 20.91428531 7.47428532 36.96l240 240q9.66857156 10.14857156 24.13714312 10.14857156t24.13714313-10.14857156l240-240q16.59428531-16.04571469 7.47428531-36.96z"  horiz-adv-x="1024" />

    
    <glyph glyph-name="download" unicode="&#59055;" d="M753.5 62.00000001000001q0 14.01562514-10.24218765 24.25781277t-24.25781275 10.24218764-24.25781278-10.24218764-10.24218763-24.25781277 10.24218764-24.25781277 24.25781276-10.24218763 24.25781277 10.24218763 10.24218764 24.25781277z m137.99999973 0q0 14.01562514-10.24218764 24.25781277t-24.25781277 10.24218764-24.25781277-10.24218764-10.24218762-24.25781277 10.24218763-24.25781277 24.25781275-10.24218763 24.25781279 10.24218763 10.24218763 24.25781277z m68.99999986 120.75l1e-8-172.50000014q0-21.56250014-15.09375-36.65625014t-36.65625014-15.09374999l-793.49999988 0q-21.56250014 0-36.65625012 15.09374999t-15.09374999 36.65625014l0 172.50000014q0 21.56250014 15.09374999 36.65625013t36.65625012 15.09375001l250.66406278 0 72.77343737-73.31250027q31.26562486-30.1875 73.31250027-30.1875t73.31250027 30.1875l73.31250027 73.31250027 250.12499987 0q21.56250014 0 36.65625013-15.09375001t15.09374999-36.65625013z m-175.19531276 306.72656237q9.16406277-22.10156209-7.54687501-37.73437501l-241.49999999-241.49999999q-9.70312473-10.24218764-24.25781277-10.24218765t-24.25781277 10.24218765l-241.49999999 241.49999999q-16.71093777 15.6328129-7.54687501 37.73437501 9.16406277 21.02343723 31.80468777 21.02343723l137.99999973 0 0 241.5q0 14.01562514 10.24218763 24.25781277t24.25781278 10.24218763l137.99999971 0q14.01562514 0 24.25781278-10.24218763t10.24218764-24.25781277l0-241.5 137.99999973 0q22.640625 0 31.80468777-21.02343723z"  horiz-adv-x="1024" />

    
    <glyph glyph-name="ok" unicode="&#59061;" d="M939.126472 583.858864L939.126472 583.858864 449.642279 94.31429500000002c-11.582803-11.605316-27.561729-18.733667-45.196365-18.733667-17.593703 0-33.549094 7.128351-45.131897 18.733667L82.546529 371.01015099999995c-11.523451 11.533684-18.671245 27.528983-18.671245 45.090964 0 35.270295 28.595268 63.938218 63.866586 63.938218 17.633612 0 33.612539-7.188726 45.195342-18.721387l231.509724-231.562936 444.391183 444.452581c11.56336 11.531638 27.561729 18.649755 45.215808 18.649755 35.228339 0 63.866586-28.586059 63.866586-63.865563C957.920514 611.4103600000001 950.792163 595.380268 939.126472 583.858864"  horiz-adv-x="1024" />

    
    <glyph glyph-name="loading" unicode="&#60174;" d="M910.01085433 221.29747747c-21.73303252-51.46777243-52.85078359-97.60107323-92.56296116-137.31325078s-85.84547839-70.82992866-137.31325082-92.56296117c-53.24592963-22.5233246-109.75181414-33.88377339-168.13464235-33.8837734s-114.88871273 11.36044882-168.03585586 33.8837734c-51.46777243 21.73303252-97.60107323 52.85078359-137.31325078 92.56296117s-70.82992866 85.84547839-92.56296117 137.31325079C91.5646076 274.4446206 80.10537228 330.9505051 80.10537229 389.33333333s11.36044882 114.88871273 33.88377339 168.13464235c21.73303252 51.46777243 52.85078359 97.60107323 92.56296115 137.31325082s85.84547839 70.82992866 137.31325082 92.56296116c42.77455943 18.07793159 87.7224221 29.04323434 134.05329593 32.59954874C497.18202329 821.42553407 512 837.42894893 512 856.69231864l0-1e-8c0 21.53545948-18.37429111 38.52673944-39.81096409 36.84736875C211.4914324 873.28845256 6.21306177 655.26662195 6.21306177 389.33333333c0-279.36825416 226.41868407-505.78693823 505.78693823-505.78693823 265.93328863 0 483.95511923 205.27837063 504.20635405 465.97597415 1.6793707 21.43667297-15.31190927 39.81096409-36.84736875 39.81096408l0 0c-19.26336972 0-35.36557107-14.81797671-36.84736874-33.98255991C938.95530215 309.01989958 928.0887859 264.07203690999995 910.01085433 221.29747747z"  horiz-adv-x="1024" />

    
    <glyph glyph-name="close-circle" unicode="&#58900;" d="M512.22950079 889.71007082c-278.79813047 0-504.79515068-226.03460358-504.79515068-504.83390853s225.99584573-504.79515068 504.79515068-504.79515068c278.79930495 0 504.83390853 225.99584573 504.83390853 504.79515068s-226.03342911 504.83390853-504.83390853 504.83390853zM756.77273922 211.76951283000005c12.81005649-12.81005649 11.20454194-35.17685907-3.57276903-49.9917534l-17.86854309-17.83095972c-14.77613649-14.77496201-37.14411355-16.38165105-49.95299555-3.57276903l-173.14893076 173.10782395-173.10899842-173.10782395c-12.81005649-12.81005649-35.17803355-11.20336745-49.99292788 3.57276903l-17.82861075 17.83095972c-14.77496201 14.81841778-16.38165105 37.18404588-3.57276903 49.9917534l173.10782394 173.10899843-173.10899842 173.10899842c-12.81005649 12.84998882-11.20336745 35.2167914 3.57276903 49.99292788l17.82861074 17.82861075c14.81841778 14.81841778 37.18522036 16.38282552 49.99292789 3.57394351l173.10899843-173.1101729 173.14893075 173.1101729c12.81005649 12.81005649 35.17803355 11.24329979 49.95299555-3.57394351l17.86854309-17.82861075c14.77613649-14.77613649 16.38165105-37.14411355 3.57276903-49.99292788l-173.1465818-173.10899842 173.14775628-173.10899843z"  horiz-adv-x="1024" />

    
    <glyph glyph-name="star" unicode="&#58992;" d="M760.114914-57.563788000000045c-10.81123 0-21.675672 2.664689-31.477922 7.701402L511.924275 56.579879000000005 293.309232-50.09876899999995c-21.141506-11.141758-50.363038-9.188266-70.789253 5.688559-20.611433 14.641465-31.241538 40.659025-26.963095 66.024739l45.073568 231.018537L68.699662 411.106358C49.813522 429.482891 43.10268 456.742744 51.118238 480.983845c7.780197 24.416086 28.687366 42.196031 54.463426 46.048779l238.624772 43.205011L451.166493 785.076678c11.640108 23.290449 34.979676 37.751812 60.817134 37.751812 25.713638 0 49.593512-14.875802 60.757782-37.931914L679.643138 570.355315 918.92385 528.394644c25.179472-3.730974 46.085618-21.392216 53.983495-46.048779 7.956206-24.118304 1.245364-51.383274-17.104563-69.221548L783.336802 252.63204299999995l43.592844-230.602052c4.455475-25.605168-6.179746-51.622728-27.14115-66.675562C788.442076-52.883185000000026 774.247796-57.563788000000045 760.114914-57.563788000000045L760.114914-57.563788000000045z"  horiz-adv-x="1024" />

    
    <glyph glyph-name="customer" unicode="&#58905;" d="M795.591194 832.260316L226.198359 832.260316 63.510452 552.410509c0 0 0-95.998913 0-111.940741 3.323858-28.184228 15.217293-56.068613 32.532465-77.631732l0-321.099211c0-61.817823 48.02504-106.019608 111.790308-106.019608l606.125149 0c63.766291 0 102.096063 44.200762 102.096063 106.019608L916.054438 362.838036c19.59009 23.062335 31.508086 40.402067 43.150799 77.631732 0 30.63414 0 111.940741 0 111.940741L795.591194 832.260316zM247.110624 789.583331l517.872013 0 129.480028-234.721885L117.629573 554.861445 247.110624 789.583331zM808.15902-22.254651999999965L203.935265-22.254651999999965c-31.883657 0-64.742572 33.08303-64.742572 63.990406l0.001023 0 0 65.038322 735.729003 0 0.299843-59.116165C875.224608 16.724951000000033 840.01914-22.254651999999965 808.15902-22.254651999999965zM874.923742 149.45310900000004L139.195763 149.45310900000004l-0.001023 0 0.001023 0L139.195763 341.49903200000006c17.865737-14.76804 50.024676-21.362542 64.742572-21.362542 30.082552 0 76.258389 35.206492 96.423605 76.208245 22.637642-39.878109 57.441956-76.208245 97.796948-76.208245 42.651402 0 97.046828 33.780958 112.736912 70.386377 15.69213-35.756034 61.267258-70.386377 103.044714-70.386377 41.427469 0 84.70414 38.828146 106.416669 80.432655 25.388421-42.003618 56.370503-80.432655 109.367003-80.432655 8.197076 0 38.355356 7.046825 45.499399 8.395607L874.923742 149.45310900000004zM813.76803 387.853956c-45.000002 0.023537-97.420353 34.982377-97.420353 63.666002l-21.59075 0c0-28.207765-43.100655-63.666002-86.251454-63.666002-41.380394 0-86.355836 36.330136-86.355836 63.666002l-21.588703 0c0-28.207765-57.670164-63.666002-99.073072-63.666002-43.150799 0-95.149528 27.585565-95.149528 63.666002l-21.563119 0c0-28.134084-45.449255-64.538924-86.926868-64.538924-42.103907 0-85.703959 25.909309-85.703959 64.538924L112.144389 513.491284l798.420771 0 0-61.971326 0.002047 0C910.169121 412.890343 852.773217 387.830419 813.76803 387.853956z"  horiz-adv-x="1025" />

    
    <glyph glyph-name="print" unicode="&#60603;" d="M803.27111111 820.90666667l0-193.40401778-582.54222222 0 0 193.40401778 582.54222222 0zM851.03957333 384q20.48606777 0 35.29235001 13.64119666t14.80628111 34.12726556-14.80628111 35.29235001-35.29235001 14.8062811-34.12726556-14.8062811-13.64119666-35.29235001 13.64119666-34.12726556 34.12726556-13.64119666zM705.40401778 44.96042666999995l0 241.22102556-386.85658112 0 0-241.22102556 386.85658112 0zM851.03957333 577.40401778q59.17658112 0 102.38179556-43.25376t43.25376-102.38179556l0-291.27111111-193.40401778 0 0-193.40401778-582.54222222 0 0 193.40401778-193.40401778 0 0 291.27111111q0 59.17658112 43.25376 102.38179556t102.38179556 43.25376l678.12769223 0z"  horiz-adv-x="1024" />

    
    <glyph glyph-name="delete" unicode="&#58939;" d="M707.04140627 746.3508910200001l0 72.4701782c0 40.00353837-34.93062589 72.47017821-78.0262252 72.47017821l-234.12698905 0c-43.14391275 0-78.07453865-32.46663984-78.07453865-72.47017821l0-72.4701782-312.15321426 0 0-72.4701782 117.06349454 0 0-724.70178204c0-40.05185182 34.97893935-72.47017821 78.02622519-72.47017821l624.35474196 0c43.14391275 0 78.07453865 32.41832639 78.07453865 72.47017821l0 724.70178204 117.06349453 0 0 72.4701782L707.04140627 746.3508910200001 707.04140627 746.3508910200001zM394.88819202 818.82106922l234.12698905 0 0-72.4701782-234.12698905 0L394.88819202 818.82106922 394.88819202 818.82106922zM824.1049008-50.82106922000003L199.75015884-50.82106922000003l0 724.70178204 624.35474196 0L824.1049008-50.82106922000003 824.1049008-50.82106922000003zM316.81365337 565.1754455099999l78.07453865 0 0-507.29124742-78.07453865 0L316.81365337 565.1754455099999 316.81365337 565.1754455099999zM472.91441722 565.1754455099999l78.0262252 0 0-507.29124742-78.0262252 0L472.91441722 565.1754455099999 472.91441722 565.1754455099999zM629.01518107 565.1754455099999l78.0262252 0 0-507.29124742-78.0262252 0L629.01518107 565.1754455099999 629.01518107 565.1754455099999zM629.01518107 565.1754455099999"  horiz-adv-x="1024" />

    
    <glyph glyph-name="more" unicode="&#58951;" d="M147.012 465.109c-44.791 0-81.108-36.304-81.108-81.109 0-44.779 36.316-81.108 81.108-81.108 44.792 0 81.109 36.329 81.109 81.108 0 44.805-36.316 81.109-81.109 81.109zM511.999 465.109c-44.791 0-81.108-36.304-81.108-81.109 0-44.779 36.316-81.108 81.108-81.108 44.792 0 81.109 36.329 81.109 81.108 0 44.805-36.317 81.109-81.109 81.109zM876.987 465.109c-44.791 0-81.108-36.304-81.108-81.109 0-44.779 36.316-81.108 81.108-81.108s81.108 36.329 81.108 81.108c-0.001 44.805-36.317 81.109-81.108 81.109z"  horiz-adv-x="1024" />

    
    <glyph glyph-name="right-small" unicode="&#59253;" d="M704.38948934 368.45156281000004c0.39598597 0.76672511 1.03780245 1.40854159 1.38462264 2.20051356 6.79820613 14.13989558 4.57244419 31.4423659-7.46526944 42.81434486L425.43316806 671.55905497c-14.8813731 14.06548219-38.33890437 13.3984181-52.42963417-1.45903604-14.06548219-14.8813731-13.42233704-38.33890437 1.45903604-52.42963418l244.84437112-231.61869802L375.42595899 150.99667934000001c-14.73254628-14.21298035-15.17769882-37.67184027-0.96338906-52.42963416 7.26727684-7.5636018 16.98222638-11.34673134 26.69717595-11.34673136 9.26979778 0 18.53959478 3.46022832 25.73245823 10.38201364l270.40408281 260.61471986c0.51956594 0.51956594 0.71622989 1.23579583 1.23579583 1.77927996 0.39598597 0.37073836 0.81589091 0.64314514 1.21054822 1.03780245C701.84348428 363.23597271000006 702.95570013 365.93080459 704.38948934 368.45156281000004z"  horiz-adv-x="1024" />

    
    <glyph glyph-name="left-small" unicode="&#59257;" d="M633.64080174 79.83782469000005c-9.34340138 0-18.68811065 3.55266364-25.81698316 10.68153617L340.18501571 358.15816445999997c-14.25905295 14.23419982-14.25905295 37.35136819 1e-8 51.61042114L607.82381932 677.4322408c14.25905295 14.25905295 37.35136819 14.25905295 51.61042115 0 14.25905295-14.23419982 14.25905295-37.35136819 0-51.61042113l-241.82182043-241.84536489L659.43423971 142.15463512999997c14.25905295-14.25905295 14.25905295-37.35136819-1e-8-51.61042116C652.32891241 83.39048833000004 642.98420313 79.83782469000005 633.64080174 79.83782469000005z"  horiz-adv-x="1024" />

    
    <glyph glyph-name="locale" unicode="&#58964;" d="M848.805886 95.11527799999999c70.998007 81.260745 109.779266 184.217628 109.779266 293.14448 0 119.204939-46.421262 231.277434-130.713041 315.569212C744.876861 786.825243 634.94103 833.07152 517.788843 834.474472c-1.924839 0.599657-10.290367 0.592494-12.227486-0.01535001C388.878868 832.742015 279.434224 786.528484 196.73471 703.82897 113.863281 620.956518 67.630307 511.227394 66.095347 394.271682c-0.428765-1.64957-0.436952-8.601912-0.021489-10.226922 1.082658-117.628024 47.364751-228.058113 130.660852-311.35421401 84.291778-84.291778 196.36325-130.713041 315.569212-130.71304099 119.204939 0 231.277434 46.421262 315.569212 130.71304099 6.139837 6.139837 12.054547 12.444427 17.789155 18.871813 0.50756 0.453325 1.001817 0.928139 1.471514 1.44081501C847.750857 93.67548598999997 848.295256 94.38770699999998 848.805886 95.11527799999999zM107.447151 368.644001l187.501418 0c1.322112-65.678862 9.253758-127.264499 22.505573-182.11268801-61.690014-16.687054-100.819197-38.371936-121.076566-51.90618399C144.30971 199.35129400000005 111.676475 280.33063000000004 107.447151 368.644001zM195.881272 641.2793789899999c20.090571-13.556761 59.242266-35.461653 121.340579-52.26024799-12.998035-54.127781-20.827351-114.778116-22.243607-179.432649L107.525945 409.586482C112.076588 496.956366 144.437623 577.075101 195.881272 641.2793789899999zM917.081898 409.587506L729.628576 409.587506c-1.415232 64.630996-9.240455 125.260865-22.229281 179.37432 61.95505 16.693194 101.235682 38.444591 121.56673 52.020794C880.270505 576.8274610000001 912.537396 496.82128899 917.081898 409.587506zM688.677908 409.587506L532.167319 409.587506 532.167319 565.62635099c52.209082 1.094938 97.103572 6.453992 135.272893 14.03362101C680.000272 527.52354499 687.286212 469.790656 688.677908 409.587506zM532.167319 606.571902L532.167319 790.7690649900001c36.84107-10.398838 72.779583-49.205679 100.926644-110.015649 8.810666-19.035542 16.645099-39.641859 23.464411-61.52116899C621.531626 612.460006 580.261687 607.6248840000001 532.167319 606.571902zM491.223814 790.41397699l0-183.805236c-47.504944 1.12666-88.378863 6.001691-123.120109 12.80258401 6.807033 21.812795 14.623046 42.35976 23.409153 61.344137C419.351903 740.89516699 454.809463 779.511673 491.223814 790.41397699zM491.223814 565.64681799l0-156.05931199L335.928912 409.587506c1.391696 60.213383 8.679683 117.955482 21.243837 170.099073C395.008472 572.150952 439.487499 566.800084 491.223814 565.64681799zM335.893096 368.644001l155.330718 0 0-158.667719c-51.609425-1.194198-96.019891-6.563486-133.821845-14.103206C344.576873 248.759587 337.193719 307.44415100000003 335.893096 368.644001zM491.223814 169.01538200000005l0-182.909843c-36.415374 10.902304-71.871911 49.51881-99.709933 109.659539-8.679683 18.752086-16.409738 39.034015-23.157419 60.55107399C402.9964 163.04234299999996 443.773106 167.86723199999994 491.223814 169.01538200000005zM532.167319-14.249549000000002L532.167319 169.07882699000004c47.904033-1.025353 89.103364-5.862521 124.116809-12.65625099-6.755868-21.555945-14.497179-41.87369-23.190165-60.656475C604.946902 34.95612999000002 569.008388-3.8507110100000546 532.167319-14.249549000000002zM532.167319 210.02744800000005L532.167319 368.644001l156.546406 0c-1.298576-61.096497-8.66024-119.68487-21.445428-172.502819C629.154233 203.67373898999995 584.319096 208.97651198999995 532.167319 210.02744800000005zM729.659275 368.644001l187.501418 0c-4.221138-88.138386-36.732599-168.973436-88.620363-233.635131-20.469194 13.668301-59.635215 35.298947-121.30374 51.86832099C720.43724 241.63839900000005 728.33921 303.102263 729.659275 368.644001zM801.518906 671.944796c-18.329461-11.570523-52.309366-29.355585-104.858186-43.493583-19.295462 63.056128-46.110177 115.004267-78.06189 150.97655C689.00025 760.2765869899999 751.833297 722.59026599 801.518906 671.944796zM406.007991 779.427762c-31.905664-35.920094-58.690704-87.768973-77.979002-150.702304-52.40351 14.241352-86.370113 32.099069-104.581893 43.587728C273.076422 722.7734379999999 335.777463 760.322635 406.007991 779.427762zM223.917816 103.72435299999995c18.284435 11.535731 52.098565 29.230742 104.332207 43.335994 19.271926-62.60485 45.976124-114.186645 77.757968-149.968593C335.99952 16.136506000000054 273.472442 53.505600999999956 223.917816 103.72435299999995zM618.59883-2.908245999999963c31.801287 35.803437 58.517765 87.426165 77.792761 150.08217999 51.984978-14.023388 85.972047-31.631418 104.533798-43.208081C751.3329 53.62635098999999 688.718841 16.166180990000043 618.59883-2.908245999999963z"  horiz-adv-x="1024" />

    
    <glyph glyph-name="down-box" unicode="&#59202;" d="M832 832L192 832C121.6 832 64 774.4 64 704l0-640c0-70.4 57.6-128 128-128l640 0c70.4 0 128 57.6 128 128L960 704C960 774.4 902.4 832 832 832zM762.24 329.6l-224-220.16c-6.4-6.4-15.36-9.6-24.32-8.96-8.96-0.64-17.28 2.56-24.32 8.96l-224 220.16c-12.8 12.8-12.8 32.64 0 45.44 12.8 12.8 33.28 12.8 45.44 0l202.24-199.04 202.24 199.04c12.8 12.8 33.28 12.8 45.44 0C775.04 362.24 775.04 342.4 762.24 329.6zM762.24 585.6l-224-220.16c-6.4-6.4-15.36-9.6-24.32-8.96C505.6 355.84000000000003 496.64 359.03999999999996 489.6 365.44000000000005l-224 220.16c-12.8 12.8-12.8 32.64 0 45.44 12.8 12.8 33.28 12.8 45.44 0l202.24-199.04 202.24 199.04c12.8 12.8 33.28 12.8 45.44 0C775.04 618.24 775.04 598.4 762.24 585.6z"  horiz-adv-x="1024" />

    
    <glyph glyph-name="up-box" unicode="&#59429;" d="M832 832L192 832C121.6 832 64 774.4 64 704l0-640c0-70.4 57.6-128 128-128l640 0c70.4 0 128 57.6 128 128L960 704C960 774.4 902.4 832 832 832zM762.24 136.96000000000004c-12.8-12.8-33.28-12.8-45.44 0L513.92 336l-202.24-199.04c-12.8-12.8-33.28-12.8-45.44 0-12.8 12.8-12.8 32.64 0 45.44l224 220.16c6.4 6.4 15.36 9.6 24.32 8.96C522.88 412.16 531.2 408.96 538.24 402.56l224-220.16C775.04 169.60000000000002 775.04 149.76 762.24 136.96000000000004zM762.24 392.96c-12.8-12.8-33.28-12.8-45.44 0L513.92 592 311.68 392.96c-12.8-12.8-33.28-12.8-45.44 0-12.8 12.8-12.8 32.64 0 45.44l224 220.16c6.4 6.4 15.36 9.6 24.32 8.96C522.88 668.16 531.2 664.96 538.24 658.56l224-220.16C775.04 425.6 775.04 405.76 762.24 392.96z"  horiz-adv-x="1024" />

    
    <glyph glyph-name="export" unicode="&#59388;" d="M1012.62222187 384L830.57777813 566.0444448000001 830.57777813 429.51111147 420.97777813 429.51111147 420.97777813 338.48888853000005 830.57777813 338.48888853000005 830.57777813 201.95555520000005M11.37777813 110.93333332999998L11.37777813 657.06666667C11.37777813 707.5840000000001 52.33777813 748.08888853 102.4 748.08888853L648.53333333 748.08888853C698.5955552 748.08888853 739.5555552 707.12888853 739.5555552 657.06666667L739.5555552 520.53333333 648.53333333 520.53333333 648.53333333 657.06666667 102.4 657.06666667 102.4 110.93333332999998 648.53333333 110.93333332999998 648.53333333 247.46666667 739.5555552 247.46666667 739.5555552 110.93333332999998C739.5555552 60.87111146999996 698.5955552 19.911111470000037 648.53333333 19.911111470000037L102.4 19.911111470000037C52.33777813 19.911111470000037 11.37777813 60.87111146999996 11.37777813 110.93333332999998Z"  horiz-adv-x="1024" />

    
    <glyph glyph-name="share" unicode="&#58950;" d="M925.097456 403.704784c-16.615423 0-30.037107-13.403265-30.037107-29.948079l0-283.162128c0-36.341696-29.714765-65.896826-66.176189-65.896826L194.455807 24.69775100000004c-36.453237 0-66.151629 29.55513-66.151629 65.896826L128.304178 685.172317c0 36.33351 29.698392 65.911152 66.151629 65.911152l206.794833 0c16.584724 0 30.051433 13.397125 30.051433 29.948079 0 16.528442-13.467733 29.933753-30.051433 29.933753L194.455807 810.965302c-69.621661 0-126.264729-56.410777-126.264729-125.792984l0-594.57774c0-69.356624 56.643068-125.792984 126.264729-125.792984l634.428354 0c69.64622 0 126.281101 56.435337 126.281101 125.792984L955.165262 373.756705C955.165262 390.30152 941.705716 403.704784 925.097456 403.704784L925.097456 403.704784 925.097456 403.704784 925.097456 403.704784zM294.170856 228.175025c-2.987031-16.238846 7.838525-31.843242 24.174586-34.830273 1.822508-0.354064 3.637854-0.481977 5.435803-0.481977 14.240329 0 26.90579 10.085706 29.538757 24.534789 0.249687 1.276063 24.086581 127.245056 107.111506 252.467035 48.309262 72.881914 106.854657 130.835837 173.995823 172.242899 64.103993 39.538505 136.544863 64.144926 216.092593 73.54911l-97.882308-100.614535c-11.541871-11.868305-11.244089-30.847565 0.666172-42.348504 5.838985-5.630231 13.380752-8.455579 20.936845-8.455579 7.822153 0 15.678074 3.051499 21.565155 9.099239l151.540392 155.771763c0.119727 0.103354 0.208754 0.225127 0.320295 0.337691 0.161682 0.176009 0.303922 0.328481 0.465604 0.506537 0.178055 0.176009 0.320295 0.352017 0.506537 0.560772 0 0.016373 0.023536 0.064468 0.056282 0.064468 0.161682 0.186242 0.303922 0.370437 0.433882 0.554632 0.151449 0.186242 0.345877 0.394996 0.481977 0.579191 0.143263 0.208754 0.295735 0.39295 0.441045 0.579191 0.152473 0.240477 0.305969 0.465604 0.506537 0.696872 0.072655 0.161682 0.192382 0.305969 0.287549 0.458441 0.121773 0.159636 0.194428 0.303922 0.305969 0.481977 0.056282 0.048095 0.089028 0.103354 0.127913 0.151449 0.016373 0.040932 0.040932 0.105401 0.056282 0.144286 0.105401 0.169869 0.178055 0.305969 0.305969 0.450255 0.1361 0.287549 0.281409 0.512676 0.449231 0.802272 0.080841 0.144286 0.161682 0.312108 0.2415 0.457418 0.023536 0.056282 0.056282 0.121773 0.089028 0.169869 0.11154 0.225127 0.224104 0.449231 0.337691 0.657986 0.072655 0.178055 0.184195 0.36225 0.240477 0.554632 0.1361 0.2415 0.25685 0.473791 0.354064 0.7552 0.097214 0.208754 0.167822 0.401136 0.25685 0.60989 0.097214 0.25685 0.216941 0.481977 0.273223 0.707105 0.105401 0.233314 0.184195 0.457418 0.273223 0.707105 0.089028 0.208754 0.144286 0.432859 0.208754 0.641613 0.113587 0.249687 0.161682 0.49835 0.2415 0.763386 0.086981 0.225127 0.11154 0.425695 0.159636 0.63445 0.105401 0.248663 0.152473 0.538259 0.208754 0.810459 0.049119 0.161682 0.097214 0.320295 0.144286 0.490164 0 0.064468 0 0.103354 0.024559 0.144286 0.056282 0.248663 0.103354 0.512676 0.159636 0.802272 0.024559 0.1361 0.057305 0.273223 0.072655 0.433882 0.016373 0.103354 0.032746 0.224104 0.049119 0.345877 0.022513 0.192382 0.064468 0.424672 0.119727 0.618077 0.016373 0.1361 0.031722 0.287549 0.031722 0.401136 0.032746 0.216941 0.049119 0.39295 0.072655 0.585331 0.032746 0.1361 0.040932 0.208754 0.040932 0.336668 0 0.097214 0.016373 0.192382 0.016373 0.314155 0 0.056282 0.031722 0.11154 0.056282 0.176009 0 0.265036 0.016373 0.49835 0.016373 0.771573 0 0.031722 0 0.080841 0.014326 0.119727 0 0.161682 0 0.305969 0 0.473791l0 0.016373c0.016373 0.345877 0.016373 0.642636 0.016373 0.947582l0 0.024559 0 0.031722c0 0.49835-0.016373 0.972141-0.016373 1.454118-0.014326 0.040932-0.014326 0.097214-0.014326 0.119727l0 0.26606 0 0.023536c-0.016373 0.370437-0.072655 0.682545-0.089028 1.028423-0.024559 0.089028-0.040932 0.216941-0.040932 0.314155l0 0c0 0.064468 0 0.103354-0.023536 0.143263-0.049119 0.305969-0.064468 0.618077-0.105401 0.932232-0.031722 0.1361-0.056282 0.265036-0.072655 0.409322-0.014326 0.039909-0.022513 0.127913-0.022513 0.161682-0.049119 0.248663-0.080841 0.496304-0.121773 0.785899-0.056282 0.169869-0.086981 0.328481-0.119727 0.490164 0 0.039909 0 0.072655-0.016373 0.103354-0.023536 0.040932-0.023536 0.080841-0.023536 0.12996-0.056282 0.200568-0.089028 0.39295-0.169869 0.593518-0.056282 0.303922-0.1361 0.626263-0.232291 0.939395-0.024559 0.127913-0.049119 0.233314-0.089028 0.378623-0.11154 0.345877-0.216941 0.690732-0.337691 1.067308-0.016373 0.072655-0.040932 0.127913-0.056282 0.208754-0.089028 0.248663-0.194428 0.49835-0.273223 0.779759 0 0-0.040932 0.031722-0.040932 0.086981-0.016373 0.080841-0.095167 0.208754-0.119727 0.289596 0 0.064468-0.016373 0.080841-0.056282 0.161682-0.113587 0.248663-0.178055 0.512676-0.320295 0.771573-0.057305 0.143263-0.12996 0.320295-0.194428 0.449231 0 0.024559-0.031722 0.039909-0.031722 0.039909-0.105401 0.273223-0.225127 0.554632-0.345877 0.818645l-0.016373 0c-0.281409 0.587378-0.554632 1.150196-0.923022 1.735527l0 0c-0.225127 0.401136-0.474814 0.796132-0.690732 1.212618-0.024559 0.024559-0.064468 0.072655-0.097214 0.105401-0.127913 0.233314-0.289596 0.465604-0.449231 0.666172l-0.040932 0.064468c-0.056282 0.113587-0.103354 0.225127-0.200568 0.322341-0.080841 0.119727-0.161682 0.232291-0.25685 0.352017-0.072655 0.080841-0.119727 0.169869-0.192382 0.249687-0.064468 0.103354-0.105401 0.176009-0.194428 0.265036-0.064468 0.080841-0.11154 0.152473-0.176009 0.25685-0.152473 0.200568-0.320295 0.401136-0.481977 0.626263-0.089028 0.080841-0.176009 0.184195-0.273223 0.297782-0.031722 0.039909-0.064468 0.127913-0.1361 0.159636-0.200568 0.265036-0.401136 0.490164-0.618077 0.723477-0.072655 0.064468-0.11154 0.119727-0.160659 0.184195-0.287549 0.314155-0.618077 0.618077-0.86674 0.924045-0.064468 0.022513-0.080841 0.048095-0.11154 0.078795-0.314155 0.314155-0.660032 0.642636-0.972141 0.956791-0.016373 0.014326-0.016373 0.014326-0.039909 0.022513-0.354064 0.305969-0.684592 0.593518-1.044796 0.883113 0 0.016373-0.040932 0.056282-0.056282 0.056282-0.354064 0.273223-0.698918 0.562818-1.044796 0.812505-0.056282 0.031722-0.089028 0.064468-0.152473 0.11154-0.305969 0.216941-0.626263 0.442068-0.955768 0.682545-0.089028 0.064468-0.176009 0.127913-0.289596 0.192382-0.159636 0.105401-0.303922 0.208754-0.490164 0.314155-0.119727 0.095167-0.240477 0.151449-0.384763 0.240477-0.144286 0.080841-0.297782 0.184195-0.433882 0.281409-0.11154 0.072655-0.25685 0.152473-0.401136 0.233314-0.127913 0.095167-0.273223 0.143263-0.433882 0.224104-0.143263 0.089028-0.328481 0.194428-0.512676 0.273223-0.248663 0.1361-0.481977 0.249687-0.738827 0.38681-0.192382 0.127913-0.394996 0.192382-0.60989 0.281409-0.216941 0.11154-0.481977 0.232291-0.707105 0.328481-0.216941 0.095167-0.449231 0.176009-0.666172 0.281409-0.216941 0.080841-0.458441 0.159636-0.674359 0.265036-0.249687 0.080841-0.490164 0.167822-0.7552 0.273223-0.202615 0.064468-0.394996 0.1361-0.611937 0.200568-0.11154 0.039909-0.248663 0.064468-0.376577 0.127913L713.958688 851.465714c-15.781428 5.227048-32.815383-3.325745-38.010709-19.009959-5.229095-15.684214 3.323699-32.647561 19.064194-37.859259l88.785116-29.313629c-65.253166-14.055111-125.799124-38.172391-181.01468-72.240301-74.617441-46.01808-139.388631-109.985974-192.546318-190.152804C320.529177 367.57184199999995 295.222815 233.82162900000003 294.170856 228.175025L294.170856 228.175025 294.170856 228.175025 294.170856 228.175025zM294.170856 228.175025"  horiz-adv-x="1024" />

    
    <glyph glyph-name="pencil" unicode="&#59192;" d="M267.71428584 171.85714248c12.85714248 0 25.71428584 6.42857168 38.57142832 12.85714248l6.42857168 0-128.57142832 128.57142832 0-6.42857168C177.71428584 294 171.28571416 281.14285752 171.28571416 268.28571416L126.28571416 126.85714248 267.71428584 171.85714248 267.71428584 171.85714248 267.71428584 171.85714248 267.71428584 171.85714248zM717.71428584 686.14285752L679.14285752 731.14285752c-25.71428584 25.71428584-57.85714248 25.71428584-83.57142832 0L557 686.14285752l122.14285752-122.14285752 38.57142832 38.57142832C743.42857168 628.28571416 743.42857168 666.85714248 717.71428584 686.14285752L717.71428584 686.14285752 717.71428584 686.14285752 717.71428584 686.14285752zM640.57142832 525.42857168L518.42857168 647.57142832 229.14285752 358.28571416l122.14285751-122.14285752L640.57142832 525.42857168 640.57142832 525.42857168 640.57142832 525.42857168 640.57142832 525.42857168zM62 62.571428319999995l900 0 0-64.28571416L62-1.7142858400000023 62 62.571428319999995 62 62.571428319999995z"  horiz-adv-x="1024" />

    
    <glyph glyph-name="record-o" unicode="&#59629;" d="M230.399232 486.4C204.799232 486.4 204.799232 460.6976 204.799232 460.6976l0-146.7904c0-65.5872 28.7744-255.232 281.6-267.2128L486.399232-76.79999999999995 302.079232-76.79999999999995l0-51.2 409.6 0 0 51.2L537.599232-76.79999999999995l0 123.4944c252.8256 11.9808 281.6 201.6256 281.6 267.2128L819.199232 452.5568C819.199232 452.5568 819.864832 486.4 793.804032 486.4c-26.0608 0-26.0608-33.8432-26.0608-33.8432l0-135.4752c0-67.7376-30.72-220.672-255.7952-220.672-225.0752 0-255.8976 152.9344-255.8976 220.672L256.050432 460.6976C256.101632 460.6976 255.999232 486.4 230.399232 486.4zM665.599232 363.52L665.599232 762.88C665.599232 762.88 665.599232 896 511.999232 896 358.399232 896 358.399232 762.88 358.399232 762.88l0-399.36c0 0 0-133.12 153.6-133.12C665.599232 230.39999999999998 665.599232 363.52 665.599232 363.52zM409.599232 352l0 422.4C409.599232 774.4 409.599232 844.8 511.999232 844.8c102.4 0 102.4-70.4 102.4-70.4l0-422.4C614.399232 352 614.399232 281.6 511.999232 281.6 409.599232 281.6 409.599232 352 409.599232 352z"  horiz-adv-x="1024" />

    
    <glyph glyph-name="plus" unicode="&#58928;" d="M962 448.28571416L576.28571416 448.28571416 576.28571416 834 447.71428584 834 447.71428584 448.28571416 62 448.28571416 62 319.71428584 447.71428584 319.71428584 447.71428584-66 576.28571416-66 576.28571416 319.71428584 962 319.71428584Z"  horiz-adv-x="1024" />

    
    <glyph glyph-name="setting" unicode="&#58886;" d="M-147.2729006-53.25614284000005M1134.50071655-53.25614284000005M-36.53246157-16.630874120000044M384.44498125 385.29935769c0 43.16420506 14.57592729 79.03924224 44.2853376 108.74985677 29.71061452 29.71061452 65.58685593 44.28654183 108.75106099 44.28654183 43.16300083 0 79.04044647-14.57592729 108.751061-44.28654183 29.71181875-29.71061452 44.2853376-65.58565171 44.28533759-108.74985677 0-43.16540928-14.57472307-79.60281907-44.28533759-109.31222937-29.71061452-29.70941031-65.58806016-44.28413338-108.751061-44.28413337-43.16420506 0-79.18134067 14.43503309-108.75106099 44.28413337C398.88001434 306.11801702 384.44498125 342.69511680000005 384.44498125 385.29935769zM168.07603405 285.51735705c8.96906035-31.95167539 22.4238551-63.34579507 38.67967488-92.49403699l-100.90313319-123.88815667 114.3555195-114.35551948 123.8749102 100.90313318c29.15065036-16.257024 61.10352999-29.71061452 93.05520538-39.24084326l16.81698816-158.07968871 164.80768819 0 16.81698816 158.07968871c31.95287961 9.53022874 62.22466252 22.98381926 93.05400115 39.24084326l123.32698829-100.90313318 115.47785625 114.35551948-101.46309734 123.88815667c15.69585561 29.14824192 29.70941031 60.54115738 39.23723059 92.49403699l158.08330138 17.37815655L1063.29615565 467.70320179l-158.08330138 16.81698816c-9.52782029 31.95287961-23.54137497 61.66349415-39.23723059 92.49403699l101.46309734 123.88695245-115.47785625 115.47785625-123.32698829-101.46309733c-31.390507 15.69705984-61.10112154 29.71061452-93.05400115 39.23963904L618.76409139 912.2376745 453.9564032 912.2376745l-16.81698816-158.08209715c-33.07401216-9.52902451-63.904555-23.54378342-93.05520537-39.23963904l-123.87491022 101.46309733-114.35551948-115.47785625 100.90313318-123.88695245c-15.69705984-30.83174707-29.15065036-60.54115738-38.67967487-92.49403699L9.43397274 467.70320179l0-164.80768819L168.07603405 285.51735705zM1111.50485504-16.630874120000044"  horiz-adv-x="1064" />

    
    <glyph glyph-name="credit" unicode="&#58998;" d="M512.37333313-96C146.50666625-5.546666250000044 92.42666656 189.12 84.74666656 254.18666625000003 84.74666656 254.18666625000003 84.74666656 785.54666625 84.74666656 785.54666625 147.09333313 785.54666625 362.02666625 864 512.37333313 864 662.77333344 864 877.65333312 785.54666625 939.25333344 785.54666625 939.25333344 785.54666625 939.25333344 254.18666625000003 939.25333344 254.18666625000003 931.73333375 189.12 878.24-5.546666250000044 512.37333313-96ZM887.30666656 736.8C833.28000031 736.8 644.48 805.75999969 512.31999969 805.75999969 380.21333375 805.75999969 191.41333344 736.8 136.58666656 736.8 136.58666656 736.8 136.58666656 269.92000031 136.58666656 269.92000031 143.30666656 212.74666688000002 190.82666656 41.75999999999999 512.31999969-37.70666625000001 833.76000031 41.75999999999999 880.74666687 212.74666688000002 887.30666656 269.92000031 887.30666656 269.92000031 887.30666656 736.8 887.30666656 736.8ZM401.91999969 614.4C401.91999969 614.4 538.82666656 614.4 538.82666656 614.4 538.82666656 614.4 538.82666656 655.46666625 538.82666656 655.46666625 538.82666656 655.46666625 613.70666656 655.46666625 613.70666656 655.46666625 613.70666656 655.46666625 613.70666656 614.4 613.70666656 614.4 613.70666656 614.4 752.74666625 614.4 752.74666625 614.4 752.74666625 614.4 752.74666625 568.9600003099999 752.74666625 568.9600003099999 752.74666625 568.9600003099999 401.91999969 568.9600003099999 401.91999969 568.9600003099999 401.91999969 568.9600003099999 401.91999969 614.4 401.91999969 614.4ZM367.68000031 160.21333312000002C367.68000031 160.21333312000002 305.65333344 160.21333312000002 305.65333344 160.21333312000002 305.65333344 160.21333312000002 305.65333344 480.31999969 305.65333344 480.31999969 291.36000031 471.67999969 274.23999969 463.73333344 254.29333344 456.53333344 254.29333344 456.53333344 254.29333344 499.73333344 254.29333344 499.73333344 299.94666688 532.9600003099999 328.42666625 584.80000031 339.84000031 655.46666625 339.84000031 655.46666625 406.13333375 655.46666625 406.13333375 655.46666625 394.71999969 606.45333375 381.92 570.40000031 367.68000031 547.36000031 367.68000031 547.36000031 367.68000031 160.21333312000002 367.68000031 160.21333312000002ZM727.04 482.45333344C727.04 482.45333344 423.30666687 482.45333344 423.30666687 482.45333344 423.30666687 482.45333344 423.30666687 525.7066668699999 423.30666687 525.7066668699999 423.30666687 525.7066668699999 727.04 525.7066668699999 727.04 525.7066668699999 727.04 525.7066668699999 727.04 482.45333344 727.04 482.45333344ZM727.04 396C727.04 396 423.30666687 396 423.30666687 396 423.30666687 396 423.30666687 439.2 423.30666687 439.2 423.30666687 439.2 727.04 439.2 727.04 439.2 727.04 439.2 727.04 396 727.04 396ZM727.04 244.53333375C728.42666656 195.57333374999996 704.96 171.78666655999996 656.42666656 173.22666656 656.42666656 173.22666656 423.30666687 173.22666656 423.30666687 173.22666656 423.30666687 173.22666656 423.30666687 348.37333313 423.30666687 348.37333313 423.30666687 348.37333313 727.04 348.37333313 727.04 348.37333313 727.04 348.37333313 727.04 244.53333375 727.04 244.53333375ZM662.93333375 302.98666687C662.93333375 302.98666687 487.46666656 302.98666687 487.46666656 302.98666687 487.46666656 302.98666687 487.46666656 214.24000031000003 487.46666656 214.24000031000003 487.46666656 214.24000031000003 635.09333375 214.24000031000003 635.09333375 214.24000031000003 653.6 214.24000031000003 662.93333375 224.37333375000003 662.93333375 244.53333375 662.93333375 244.53333375 662.93333375 302.98666687 662.93333375 302.98666687Z"  horiz-adv-x="1024" />

    
    <glyph glyph-name="edit" unicode="&#59095;" d="M326.000622 16.853849l-181.137807 181.137807 500.696096 500.696096 181.137807-181.137807-500.696096-500.696096ZM943.446 719.214l-96.23 96.228c-23.446 23.448-63.116 21.792-88.608-3.7l-90.404-90.406 181.138-181.136 90.404 90.404C965.232 656.096 966.89 695.768 943.446 719.214zM128.042 169.496 64-64 297.474 0.042Z"  horiz-adv-x="1024" />

    
    <glyph glyph-name="box" unicode="&#58986;" d="M79.3019375 619.9134375L486.85625 391.6678125C493.915625 387.7134375 502.5621875 387.7134375 509.62625 391.6678125L917.17625 619.9134375C933.26 628.9181249999999 932.650625 652.0190625 916.1196875 660.185625L508.5696875 861.57915C502.0690625 864.79094812 494.4134375 864.79094812 487.911875 861.57915L80.3620625 660.185625C63.82746875 652.0190625 63.2230625 628.9181249999999 79.3019375 619.9134375L79.3019375 619.9134375ZM498.7690625 817.453875L860.170625 639.568125 498.7690625 438.564375 137.8709375 639.568125 498.7690625 817.453875ZM475.1440625 392.0578125L475.1440625-46.4765625C475.1440625-63.94968749999998 494.1978125-74.94375000000002 509.594375-66.35062500000004L944.3121875 176.15812500000004C951.5703125 180.2053125 956.05625 187.801875 956.05625 196.036875L956.05625 491.4140625C956.05625 504.01875 945.7146875 514.2365625 932.96 514.2365625 920.2053125 514.2365625 909.8675 504.01875 909.8675 491.4140625L909.8675 196.036875 921.606875 215.90999999999997 486.888125-26.597812500000032 521.33375-46.4765625 521.33375 392.0578125C521.33375 404.6615625 510.995 414.8840625 498.2403125 414.8840625 485.4865625 414.8840625 475.1440625 404.6615625 475.1440625 392.0578125L475.1440625 392.0578125ZM510.15125-26.921249999999986L102.60134375 215.58749999999998 113.78375 196.036875 113.78375 625.674375C113.78375 638.2790625 103.445375 648.5015625 90.68590625 648.5015625 77.93234375 648.5015625 67.59396875 638.2790625 67.59396875 625.674375L67.59396875 196.036875C67.59396875 188.02968750000002 71.83653125 180.61031249999996 78.776375 176.48062500000003L486.3265625-66.03187500000001C497.2540625-72.53062499999999 511.4478125-69.04875000000004 518.0271875-58.24781250000001 524.601875-47.44687499999998 521.0796875-33.42375000000004 510.15125-26.921249999999986L510.15125-26.921249999999986ZM187.4871875 444.99L323.335625 364.43062499999996C334.2734375 357.9459375 348.4625 361.4503125 355.0240625 372.260625 361.585625 383.0709375 358.04 397.0884375 347.1021875 403.573125L211.2490625 484.1315625C200.316875 490.61625 186.1278125 487.111875 179.5653125 476.3025 173.0046875 465.4921875 176.5503125 451.47375 187.4871875 444.99L187.4871875 444.99Z"  horiz-adv-x="1024" />

    
    <glyph glyph-name="record" unicode="&#58943;" d="M665.599232 363.52L665.599232 762.88C665.599232 762.88 665.599232 896 511.999232 896S358.399232 762.88 358.399232 762.88l0-399.36c0 0 0-133.12 153.6-133.12S665.599232 363.52 665.599232 363.52zM230.399232 486.4C204.799232 486.4 204.799232 460.6976 204.799232 460.6976l0-146.7904c0-65.5872 28.7744-255.232 281.6-267.2128L486.399232-76.79999999999995 302.079232-76.79999999999995l0-51.2 409.6 0 0 51.2L537.599232-76.79999999999995l0 123.4944c252.8256 11.9808 281.6 201.6256 281.6 267.2128L819.199232 452.5568C819.199232 452.5568 819.864832 486.4 793.804032 486.4c-26.0608 0-26.0608-33.8432-26.0608-33.8432l0-135.4752c0-67.7376-30.72-220.672-255.7952-220.672-225.0752 0-255.8976 152.9344-255.8976 220.672L256.050432 460.6976C256.101632 460.6976 255.999232 486.4 230.399232 486.4z"  horiz-adv-x="1024" />

    
    <glyph glyph-name="minus" unicode="&#58893;" d="M34.75456 433.49504l956.19584 0 0-112.64-956.19584 0 0 112.64Z"  horiz-adv-x="1024" />

    
    <glyph glyph-name="finished-order" unicode="&#59083;" d="M928.77157901 215.32296327999995c7.59175313-7.59085312 7.59175313-19.89900879 0.00089912-27.48986192l-247.73883311-247.7388331c-7.59085312-7.59085312-19.89900879-7.59085312-27.49076104 0.00089912l0 0c-7.59085312 7.58995401-7.59085312 19.89900879 0 27.4889628l247.73883311 247.7388331C908.87347021 222.91471552999997 921.18072588 222.91471552999997 928.77157901 215.32296327999995L928.77157901 215.32296327999995zM679.79608438-59.90483260999997c-7.59175313-7.59175313-19.89900879-7.59175313-27.49076104-0.00089913l-116.99627696 116.99627695c-7.59085312 7.59085312-7.59085312 19.89990791 0.00089913 27.49076104l0 0c7.58995401 7.59085312 19.89900879 7.59085312 27.48986191-0.00089912l116.99627696-116.99627695C687.38783662-40.006723830000055 687.3869375-52.314878619999945 679.79608438-59.90483260999997L679.79608438-59.90483260999997zM682.90887412 615.1693672900001c0-10.73692002-8.7024999-19.43941992-19.43762168-19.43941992l-350.35565889 0c-10.7360209 0-19.4385208 8.70339902-19.43852079 19.43941992l0 0c0 10.73512177 8.70339902 19.43762168 19.4385208 19.43762167l350.35565888 0C674.20637422 634.6078880800001 682.90887412 625.9044890600001 682.90887412 615.1693672900001L682.90887412 615.1693672900001zM682.90887412 400.91663027c0-10.73692002-8.7024999-19.43941992-19.43762168-19.43941991l-350.35565889-1e-8c-10.7360209 0-19.4385208 8.70339902-19.43852079 19.43941993l0-1e-8c0 10.73512177 8.70339902 19.43762168 19.4385208 19.43762168l350.35565888 0C674.20637422 420.35425195 682.90887412 411.65085293 682.90887412 400.91663027L682.90887412 400.91663027zM498.01133428 200.19611924000003c0-10.73692002-8.7024999-19.43941992-19.43762168-19.43941992l-165.45811905 0c-10.7360209 0-19.4385208 8.70339902-19.43852079 19.43941992l0 0c0 10.73512177 8.70339902 19.43762168 19.4385208 19.43762168l165.45811904 0C489.30883437 219.63374004000002 498.01133428 210.93034102000001 498.01133428 200.19611924000003L498.01133428 200.19611924000003zM774.20147714 833.59977158l-570.00293789 0c-63.22713223 0-114.66595635-51.43882412-114.66595634-114.66595635l0-669.82266034c0-63.22713223 51.43882412-114.66595635 114.66595634-114.66595635l312.25389171 0c0.41641787-0.02608242 0.83463398-0.04407011 1.25734746-0.04407012 10.93928291 0 19.80817031 8.86888652 19.80817031 19.80817031 0 10.55434394-8.25550313 19.17769747-18.65964902 19.77219405-0.00539648 0.01259121-0.01079297 0.0242833-0.01528945 0.03597539l-314.64447101 0c-41.40612685 0-75.09278672 33.68666074-75.09278672 75.09278672l0 669.82266034c0 41.40612685 33.68666074 75.09278672 75.09278672 75.09278672l570.00293789 0c41.40612685 0 75.09278672-33.68666074 75.09278672-75.09278672l0-410.98625156c-0.02608242-0.41461875-0.04317099-0.83193575-0.04317099-1.25285097 0-10.93928291 8.8679874-19.80817031 19.80817031-19.80817032 10.93928291 0 19.80817031 8.86888652 19.80817031 19.80817032l0 412.23910165C888.86743349 782.16004746 837.42860938 833.59977158 774.20147714 833.59977158z"  horiz-adv-x="1024" />

    
    <glyph glyph-name="rmb" unicode="&#59084;" d="M787.669861 833.250164h-65.742653l-210.480106-375.237589L298.62537 833.250164h-65.917737L454.915321 441.463516H224.561601v-49.146496h253.973731v-149.487257H224.561601v-49.146496h253.973731v-257.529684h66.552546V193.683267h257.045387v49.146496H545.087878v149.487257h257.045387v49.146496H567.906187z"  horiz-adv-x="1024" />

    
    <glyph glyph-name="location" unicode="&#58946;" d="M512 501.11708981m-116.50844445 0a116.50844445 116.50844445 0 1 1 233.0168889 0 116.50844445 116.50844445 0 1 1-233.0168889 0ZM512-124.63552536999998c-24.77746252 0-48.5218835 7.57822704-68.66489901 21.9152384-18.20509171 12.9583281-32.26766096 30.54592507-40.89316945 51.08248019L179.35932933 296.38068401l-0.19935888 0.32363457C141.14326503 358.47709582000005 121.04944197 429.16406361 121.04944197 501.1196789c0 104.42651875 40.66662526 202.60300674 114.50708828 276.44346974S407.57348125 892.07023692 512 892.07023692s202.60300674-40.66662526 276.44346975-114.50708828C862.2852273 703.72268563 902.95055803 605.5461976500001 902.95055803 501.1196789c0-72.29866793-20.26599664-143.26784507-58.60892571-205.23480304l-0.3417581-0.54241154-222.76544032-347.86314619c-8.74460603-20.35790885-22.86154587-37.76944862-41.04204137-50.5581922-20.04592514-14.10399447-43.62593975-21.5566513-68.19239253-21.5566513zM249.52718729 340.44158861999995l227.18369943-354.418688 1.5456787-4.13863884c5.37103929-14.37843659 18.61675488-23.66933776 33.74343458-23.66933777 14.99593134 0 28.20928347 9.15368012 33.66317322 23.32110696l1.50813708 3.91986189L774.05338231 339.74642156000004C804.17858243 388.54404172 820.10010864 444.33734668 820.10010864 501.1196789c0 82.29638701-32.04758945 159.66705588-90.24096837 217.86043479-58.19208438 58.19078985-135.56275326 90.23967383-217.85914027 90.23967385s-159.66705588-32.04758945-217.86043481-90.23967385S203.89989136 583.41606589 203.89989136 501.1196789c0-56.49365017 15.77524338-112.04487648 45.62729593-160.67809028z"  horiz-adv-x="1024" />

    
    <glyph glyph-name="up_down_arrow" unicode="&#59063;" d="M512.03799 888.88888889L921.675981 477.24088889 102.4 477.24088889 512.03799 888.88888889ZM512.03799-106.43911111L102.4 305.20888889 921.675981 305.20888889 512.03799-106.43911111Z"  horiz-adv-x="1024" />

    
    <glyph glyph-name="change" unicode="&#58956;" d="M74.21838222 498.62428445H806.17244445v-96.02275556c0-14.56583111 17.61052445-21.86012445 27.90968888-11.56096l180.18190222 180.18190222c6.38520889 6.38520889 6.38520889 16.73671111 0 23.12078222L834.08213333 774.52629333c-10.29916445 10.29916445-27.90968889 3.00487111-27.90968888-11.56096v-118.70549333H74.21838222c-40.21589333 0-72.81777778-32.60188445-72.81777777-72.81777778s32.60188445-72.81777778 72.81777777-72.81777777ZM949.78161778 269.37571555H216.21418667v96.02275556c0 14.56583111-17.61052445 21.86012445-27.90968889 11.56096L8.12259555 196.77752888999999c-6.38520889-6.38520889-6.38520889-16.73671111 0-23.12078222l180.18190223-180.18190222c10.29916445-10.29916445 27.90968889-3.00487111 27.90968889 11.56096v118.70435555h733.56743111c40.21703111 0 72.81777778 32.60188445 72.81777777 72.81777778s-32.60188445 72.81777778-72.81777777 72.81777777Z"  horiz-adv-x="1024" />

    
    <glyph glyph-name="users" unicode="&#59209;" d="M338.857143 384q-92.571429-2.857143-151.428572-73.142857H110.857143q-46.857143 0-78.857143 23.142857T0 401.714286q0 201.714286 70.857143 201.714285 3.428571 0 24.857143-12t55.714285-24.285714T219.428571 554.857143q38.285714 0 76 13.142857-2.857143-21.142857-2.857142-37.714286 0-79.428571 46.285714-146.285714z m612-364q0-68.571429-41.714286-108.285714t-110.857143-39.714286H298.857143q-69.142857 0-110.857143 39.714286T146.285714 20q0 30.285714 2 59.142857t8 62.285714T171.428571 203.428571t24.571429 55.714286 35.428571 46.285714 48.857143 30.571429T344 347.428571q5.714286 0 24.571429-12.285714t41.714285-27.428571 61.142857-27.428572 77.142858-12.285714 77.142857 12.285714 61.142857 27.428572 41.714286 27.428571 24.571428 12.285714q34.857143 0 63.714286-11.428571t48.857143-30.571429 35.428571-46.285714 24.571429-55.714286 15.142857-62 8-62.285714 2-59.142857zM365.714286 749.714286q0-60.571429-42.857143-103.428572t-103.428572-42.857143-103.428571 42.857143-42.857143 103.428572 42.857143 103.428571T219.428571 896t103.428572-42.857143 42.857143-103.428571z m402.285714-219.428572q0-90.857143-64.285714-155.142857T548.571429 310.857143 393.428571 375.142857 329.142857 530.285714t64.285714 155.142857T548.571429 749.714286t155.142857-64.285715T768 530.285714z m329.142857-128.571428q0-44.571429-32-67.714286t-78.857143-23.142857h-76.571428q-58.857143 70.285714-151.428572 73.142857 46.285714 66.857143 46.285715 146.285714 0 16.571429-2.857143 37.714286 37.714286-13.142857 76-13.142857 33.714286 0 68 12.285714t55.714285 24.285714 24.857143 12q70.857143 0 70.857143-201.714285z m-73.142857 348q0-60.571429-42.857143-103.428572t-103.428571-42.857143-103.428572 42.857143-42.857143 103.428572 42.857143 103.428571 103.428572 42.857143 103.428571-42.857143 42.857143-103.428571z"  horiz-adv-x="1097" />

    
    <glyph glyph-name="import" unicode="&#59316;" d="M643.02222186 384l-182.04444373 182.0444448v-136.53333333H96.88888853v-91.02222294h364.0888896v-136.53333333m455.1111104-91.02222187V657.06666667a91.02222187 91.02222187 0 0 1-91.02222187 91.02222186H278.93333333a91.02222187 91.02222187 0 0 1-91.02222187-91.02222186v-136.53333334h91.02222187V657.06666667h546.13333333v-546.13333334H278.93333333v136.53333334H187.91111146v-136.53333334a91.02222187 91.02222187 0 0 1 91.02222187-91.02222186h546.13333333a91.02222187 91.02222187 0 0 1 91.02222187 91.02222186z"  horiz-adv-x="1024" />

    
    <glyph glyph-name="retrieval" unicode="&#58952;" d="M941.87916667 89.02499999999998l-87.24375 88.7625c32.625 43.0875 43.93125 84.7125 43.93125 143.15625 0 140.90625-113.625 255.2625-253.8 255.2625-140.0625 0-253.575-114.35625-253.575-255.2625 0-140.9625 114.35625-260.04375 254.41875-260.04375 48.09375 2.64375 74.8125 11.19375 127.575 39.88125l86.90625-88.2c20.75625-21.65625 48.54375-28.8 67.89375-17.38125 0.05625 0 63.1125 34.03125 13.89375 93.825zM538.22916667 213.61874999999998a150.975 150.975 0 0 0-44.15625 107.325 150.58125 150.58125 0 0 0 44.15625 107.4375c28.4625 28.6875 66.375 44.4375 106.65 44.4375 40.33125 0 78.13125-15.75 106.65-44.4375 28.4625-28.6875 44.26875-66.825 44.26875-107.325 0-40.66875-15.69375-78.6375-44.15625-107.4375-28.575-28.6875-66.375-44.38125-106.7625-44.38125a148.725 148.725 0 0 0-106.65 44.38125zM60.66666667 834h787.5v-111.76875H60.66666667zM60.66666667 608.1h279.50625v-111.54375H60.66666667zM60.66666667 157.48125000000005h279.50625v-110.08125H60.66666667zM60.66666667 382.875h224.1v-112.275H60.66666667z"  horiz-adv-x="1024" />

    
    <glyph glyph-name="view" unicode="&#59060;" d="M512 480a96 96 0 1 1 0-192 96 96 0 0 1 0 192z m511.952-102.064c-0.016 0.448-0.064 0.864-0.096 1.296a8.16 8.16 0 0 1-0.08 0.656c0 0.32-0.064 0.624-0.128 0.928-0.032 0.368-0.064 0.736-0.128 1.088-0.032 0.048-0.032 0.096-0.032 0.144a39.488 39.488 0 0 1-10.704 21.536c-32.672 39.616-71.536 74.88-111.04 107.072-85.088 69.392-182.432 127.424-289.856 150.8-62.112 13.504-124.576 14.064-187.008 2.64-56.784-10.384-111.504-32-162.72-58.784-80.176-41.92-153.392-99.696-217.184-164.48-11.808-11.984-23.552-24.224-34.288-37.248-14.288-17.328-14.288-37.872 0-55.216 32.672-39.616 71.52-74.848 111.04-107.056 85.12-69.392 182.448-127.408 289.888-150.784 62.096-13.504 124.608-14.096 187.008-2.656 56.768 10.4 111.488 32 162.736 58.768 80.176 41.936 153.376 99.696 217.184 164.48 11.792 12 23.536 24.224 34.288 37.248 5.712 5.872 9.456 13.44 10.704 21.568l0.032 0.128a12.592 12.592 0 0 1 0.128 1.088c0.064 0.304 0.096 0.624 0.128 0.928l0.08 0.656 0.096 1.28c0.032 0.656 0.048 1.296 0.048 1.952l-0.096 1.968zM512 192c-106.032 0-192 85.952-192 192s85.952 192 192 192 192-85.968 192-192c0-106.048-85.968-192-192-192z"  horiz-adv-x="1024" />

    
    <glyph glyph-name="money" unicode="&#59334;" d="M438.857143 237.71428600000002h219.428571v54.857143H585.142857V548.5714290000001H520L435.428571 470.285714l44-45.714285q24 21.142857 31.428572 32.571428h1.142857v-164.571428H438.857143v-54.857143z m292.571428 146.285714q0-40-12-81.142857t-34-76.571429-58-57.714285-78.857142-22.285715-78.857143 22.285715-58 57.714285-34 76.571429-12 81.142857 12 81.142857 34 76.571429T469.714286 599.4285709999999t78.857143 22.285715 78.857142-22.285715 58-57.714285 34-76.571429 12-81.142857z m292.571429-146.285714V530.285714q-60.571429 0-103.428571 42.857143t-42.857143 103.428572H219.428571q0-60.571429-42.857142-103.428572T73.142857 530.285714v-292.571428q60.571429 0 103.428572-42.857143t42.857142-103.428572h658.285715q0 60.571429 42.857143 103.428572t103.428571 42.857143z m73.142857 475.428571v-658.285714q0-14.857143-10.857143-25.714286t-25.714285-10.857143H36.571429q-14.857143 0-25.714286 10.857143t-10.857143 25.714286V713.142857q0 14.857143 10.857143 25.714286t25.714286 10.857143h1024q14.857143 0 25.714285-10.857143t10.857143-25.714286z"  horiz-adv-x="1097" />

    
    <glyph glyph-name="notification" unicode="&#58957;" d="M944.742 170.394l-0.204 0.921a23.623 23.623 0 0 0-1.434 1.946c-3.072 4.915-6.656 9.728-10.65 14.438-59.29 82.33-111.82 181.76-111.82 311.194-0.205 155.443-93.799 284.877-234.701 318.566v4.608C585.933 862.72 552.653 896 512 896s-73.933-33.28-73.933-73.933v-4.608C297.062 783.77 203.47 654.234 203.264 498.995c0-138.24-59.802-241.561-123.904-327.065l-0.614-2.356c-7.68-13.516-11.776-27.648-11.776-42.086v-2.253C69.94 25.498000000000047 268.083-14.336000000000013 512-14.336000000000013c245.76 0 445.03 40.346 445.03 141.824 0 14.746-4.198 29.184-12.288 42.906zM369.357-44.54399999999998C402.33-94.822 459.162-128 523.776-128c65.536 0 123.085 34.202 155.853 85.606-51.712-4.915-108.34-7.27-167.629-7.27-49.869 0-97.894 1.536-142.643 5.12z"  horiz-adv-x="1024" />

    
    <glyph glyph-name="up-triangle" unicode="&#58880;" d="M65.582671 160.791335l446.417329 446.41733 446.417329-446.41733z"  horiz-adv-x="1024" />

    
    <glyph glyph-name="down-triangle" unicode="&#58881;" d="M65.582671 607.208665l446.417329-446.41733 446.417329 446.41733z"  horiz-adv-x="1024" />

    
    <glyph glyph-name="right-triangle" unicode="&#58883;" d="M288.791335 830.417329l446.41733-446.417329-446.41733-446.417329z"  horiz-adv-x="1024" />

    
    <glyph glyph-name="left-triangle" unicode="&#58884;" d="M735.208665 830.417329l-446.41733-446.417329 446.41733-446.417329z"  horiz-adv-x="1024" />

    
    <glyph glyph-name="share-bold" unicode="&#59333;" d="M863.2109375 261.3046875l0-183.8671875c0-31.640625-26.71875-58.18359375-58.18359375-58.18359375l-614.8828125-1.0546875c-31.46484375 0-57.12890625 25.6640625-57.12890625 57.3046875l1.0546875 614.8828125c0 31.46484375 26.71875 58.18359375 58.18359375 58.18359375l340.13671875 0L532.390625 816.24609375 192.25390625 816.24609375c-71.89453125 0-125.68359375-72.7734375-125.68359375-137.8125l0-602.9296875c0-68.203125 55.37109375-123.75 123.75-123.75l602.9296875 0c72.0703125 0 137.63671875 59.94140625 137.63671875 125.68359375L930.88671875 261.3046875 863.2109375 261.3046875 863.2109375 261.3046875zM703.77734375 780.5625l253.65234375-254.1796875L703.77734375 272.37890625l0 145.1953125c0 0-251.71875 27.94921875-398.671875-181.58203125 0 0 46.23046875 399.375 398.671875 399.375L703.77734375 780.5625 703.77734375 780.5625z"  horiz-adv-x="1024" />

    
    <glyph glyph-name="remove" unicode="&#58882;" d="M591.71679688 384.08789063l238.79882812 238.79882812c21.88476563 21.88476563 21.88476563 57.56835938 0 79.453125-21.88476563 21.88476563-57.56835938 21.88476563-79.453125 0L512.26367188 463.54101563 273.46484375 702.33984375c-21.88476563 21.88476563-57.56835938 21.88476563-79.453125 0-21.88476563-21.88476563-21.88476563-57.56835938 0-79.453125l238.79882813-238.79882813-238.79882813-238.79882812c-21.88476563-21.88476563-21.88476563-57.56835938 0-79.453125 21.88476563-21.88476563 57.56835938-21.88476563 79.453125 0l238.79882813 238.79882813L751.15039063 65.8359375c21.88476563-21.88476563 57.56835938-21.88476563 79.45312499 0 21.88476563 21.88476563 21.88476563 57.56835938 0 79.453125L591.71679688 384.08789063z"  horiz-adv-x="1024" />

    
    <glyph glyph-name="up" unicode="&#58906;" d="M513.13777778 486.62755555l371.48444444-371.48444444c30.72-30.72 80.44088889-30.72 111.16088889 0s30.72 80.44088889 0 111.16088889L568.77511111 653.42577778c-30.72 30.72-80.44088889 30.72-111.16088889 0L30.37866667 226.30399999999997c-30.72-30.72-30.72-80.44088889 0-111.16088889s80.44088889-30.72 111.16088888 0L513.13777778 486.62755555z"  horiz-adv-x="1024" />

    
    <glyph glyph-name="down" unicode="&#58907;" d="M513.13777778 281.82755555000006L141.65333333 653.42577778c-30.72 30.72-80.44088889 30.72-111.16088888 0s-30.72-80.44088889 0-111.16088889l427.12177777-427.12177778c30.72-30.72 80.44088889-30.72 111.16088889 0L995.89688889 542.15111111c30.72 30.72 30.72 80.44088889 0 111.16088889s-80.44088889 30.72-111.16088889 0L513.13777778 281.82755555000006z"  horiz-adv-x="1024" />

    
    <glyph glyph-name="whole" unicode="&#58913;" d="M328.85664277 833.19227549H98.91537383C86.20008857 833.19227549 75.92203847 822.89049492 75.92203847 810.19806123v-229.93951113c0-12.71616504 10.2780501-22.99509404 22.99333536-22.99509405H328.85664277c12.71616504 0 22.99333623 10.2780501 22.99333624 22.99509405V810.19806123C351.8491001 822.89049492 341.57192891 833.19227549 328.85664277 833.19227549z m0-321.91549101H98.91537383c-12.71528613 0-22.99333623-10.2780501-22.99333536-22.99421515v-229.94126806c0-12.71528613 10.2780501-22.99157842 22.99333536-22.99157842H328.85664277c12.71616504 0 22.99333623 10.27629229 22.99333624 22.99157842V488.28256934c-0.00087891 12.71616504-10.2780501 22.99421513-22.99333624 22.99421514z m0-321.91636993H98.91537383c-12.71528613 0-22.99333623-10.27892901-22.99333536-22.99421514v-206.9461749c0-12.71528613 10.2780501-22.99421513 22.99333536-22.99421513H328.85664277c12.71616504 0 22.99333623 10.27892901 22.99333624 22.99421513V166.36619942000004c-0.00087891 12.71528613-10.2780501 22.99421513-22.99333624 22.99421513zM926.69919541 833.19227549H420.83174375c-12.71528613 0-22.99245732-10.30178057-22.99245644-22.99421426v-229.93951113c0-12.71616504 10.27717119-22.99509404 22.99245644-22.99509405h505.86833057c12.71704395 0 22.99509404 10.2780501 22.99509404 22.99509405V810.19806123C949.69428945 822.89049492 939.41623935 833.19227549 926.69919541 833.19227549z m0-321.91549101H420.83174375c-12.71528613 0-22.99245732-10.2780501-22.99245644-22.99421515v-229.94126806c0-12.71528613 10.27717119-22.99157842 22.99245644-22.99157842h505.86833057c12.71704395 0 22.99509404 10.27629229 22.99509404 22.99157842V488.28256934c-0.00087891 12.71616504-10.27892901 22.99421513-22.99597295 22.99421514z m-2.20608018-322.23893204H422.99387862c-13.91236963 0-25.20117422-11.28880459-25.20117422-25.26972978v-202.09455615c0-13.93522207 11.26683106-25.2714876 25.20117422-25.2714876H924.5159668c13.91061182 0.02285156 25.17832266 11.33538662 25.17832265 25.29346025V163.79009530999997c0 13.95895254-11.26770996 25.24775713-25.20117422 25.24775713z"  horiz-adv-x="1024" />

    
    <glyph glyph-name="home" unicode="&#58908;" d="M941.2578125 435.50390625l-377.9296875 377.9296875C550.49609375 826.265625 533.26953125 833.47265625 514.98828125 833.47265625c-18.28125 0-35.33203125-7.03125-48.33984375-20.0390625l-377.9296875-377.9296875c-26.54296875-26.71875-26.54296875-69.9609375 0-96.6796875l9.4921875-9.31640625L190.3203125 300.85546875v-271.58203125c0-52.55859375 42.71484375-95.2734375 95.2734375-95.2734375H466.296875V112.76953125c0 6.85546875 5.625 12.48046875 12.48046875 12.48046875h79.98046875c6.85546875 0 12.48046875-5.625 12.48046875-12.48046875V-66h168.046875c52.55859375 0 95.2734375 42.71484375 95.2734375 95.2734375V300.50390625l97.03125 28.828125 9.4921875 9.4921875c13.0078125 12.83203125 20.0390625 30.05859375 20.0390625 48.33984375 0.17578125 18.28125-6.85546875 35.33203125-19.86328125 48.33984375zM739.4609375-10.27734375h-112.32421875v122.87109375c0 37.6171875-30.5859375 68.37890625-68.37890625 68.37890625h-79.98046875c-37.6171875 0-68.37890625-30.5859375-68.37890625-68.37890625v-122.87109375h-124.98046875c-21.796875 0-39.55078125 17.75390625-39.55078125 39.375V341.8125l-117.94921875 36.73828125c-4.5703125 4.921875-4.39453125 12.65625 0.3515625 17.40234375l377.9296875 377.9296875c2.28515625 2.28515625 5.44921875 3.69140625 8.7890625 3.69140625s6.50390625-1.23046875 8.7890625-3.69140625l377.9296875-377.9296875c2.28515625-2.28515625 3.69140625-5.44921875 3.69140625-8.7890625 0-3.1640625-1.0546875-6.15234375-3.33984375-8.4375l-123.3984375-36.5625v-312.890625c0.17578125-21.796875-17.578125-39.55078125-39.19921875-39.55078125z"  horiz-adv-x="1024" />

    
    <glyph glyph-name="qrcode" unicode="&#59090;" d="M165.24867725 840.27936507h194.18074074c55.48021164 0 104.02539683-48.54518519 104.02539682-104.02539682v-194.18074074c0-55.48021164-48.54518519-104.02539683-104.02539682-104.02539682H165.24867725c-55.48021164 0-104.02539683 48.54518519-104.02539682 104.02539682V736.2539682500001c0 62.4152381 41.61015873 104.02539683 104.02539682 104.02539682z m0-69.35026454c-20.80507937 0-34.67513227-13.87005291-34.67513228-34.67513228v-194.18074074c0-13.87005291 13.87005291-34.67513227 34.67513228-34.67513228h194.18074074c13.87005291 0 34.67513227 20.80507937 34.67513228 34.67513228V736.2539682500001c0 20.80507937-13.87005291 34.67513227-34.67513228 34.67513228H165.24867725zM165.24867725 340.95746031h194.18074074c55.48021164 0 104.02539683-48.54518519 104.02539682-104.02539682V42.751322749999986c0-55.48021164-48.54518519-104.02539683-104.02539682-104.02539682H165.24867725c-55.48021164 0-104.02539683 48.54518519-104.02539682 104.02539682v194.18074074c0 55.48021164 41.61015873 104.02539683 104.02539682 104.02539682z m0-69.35026454c-20.80507937 0-34.67513227-13.87005291-34.67513228-34.67513228V42.751322749999986c0-20.80507937 13.87005291-34.67513227 34.67513228-34.67513228h194.18074074c20.80507937 0 34.67513227 13.87005291 34.67513228 34.67513228v194.18074074c0 20.80507937-13.87005291 34.67513227-34.67513228 34.67513228H165.24867725zM595.22031746 340.95746031H928.1015873c20.80507937 0 34.67513227-13.87005291 34.67513227-34.67513227s-13.87005291-34.67513227-34.67513227-34.67513227h-332.88126984c-20.80507937 0-34.67513227 13.87005291-34.67513227 34.67513227s13.87005291 34.67513227 34.67513227 34.67513227zM560.54518519-26.598941800000034v180.31068782c0 20.80507937 13.87005291 34.67513227 34.67513227 34.67513229s34.67513227-13.87005291 34.67513227-34.67513229V-26.598941800000034c0-20.80507937-13.87005291-34.67513227-34.67513227-34.67513227s-34.67513227 13.87005291-34.67513227 34.67513227zM713.11576719 42.751322749999986v104.02539683c0 20.80507937 13.87005291 34.67513227 34.67513228 34.67513227s34.67513227-13.87005291 34.67513228-34.67513227v-104.02539683c0-20.80507937-13.87005291-34.67513227-34.67513228-34.67513228s-34.67513227 20.80507937-34.67513228 34.67513228zM865.68634921 8.076190470000029v145.63555555c0 20.80507937 13.87005291 34.67513227 34.67513227 34.67513229s34.67513227-13.87005291 34.67513228-34.67513229V8.076190470000029c0-20.80507937-13.87005291-34.67513227-34.67513228-34.67513227s-34.67513227 13.87005291-34.67513227 34.67513227zM664.57058201 770.92910053c-20.80507937 0-34.67513227-13.87005291-34.67513228-34.67513228v-194.18074074c0-20.80507937 13.87005291-34.67513227 34.67513228-34.67513228H858.75132275c20.80507937 0 34.67513227 13.87005291 34.67513228 34.67513228V736.2539682500001c0 20.80507937-13.87005291 34.67513227-34.67513228 34.67513228h-194.18074074z m0 69.35026454H858.75132275c55.48021164 0 104.02539683-48.54518519 104.02539682-104.02539682v-194.18074074c0-55.48021164-48.54518519-104.02539683-104.02539682-104.02539682h-194.18074074c-55.48021164 0-104.02539683 48.54518519-104.02539682 104.02539682V736.2539682500001c0 62.4152381 48.54518519 104.02539683 104.02539682 104.02539682z"  horiz-adv-x="1024" />

    
    <glyph glyph-name="up-small" unicode="&#59405;" d="M511.3210658431053 444.9682872891426L732.9930680692196 223.22839164733887c18.331222236156457-18.331222236156467 48.00064489245414-18.331222236156478 66.33186712861061-2.1316282072803006e-14s18.331222236156478 48.00064489245414 2.1316282072803006e-14 66.33186712861061l-254.87188249826423 254.87188249826437c-18.331222236156457 18.331222236156467-48.00064489245414 18.331222236156478-66.33186712861061 2.1316282072803006e-14L223.24930307269096 289.62815219163906c-18.331222236156467-18.331222236156457-18.331222236156478-48.00064489245414-2.1316282072803006e-14-66.33186712861061s48.00064489245414-18.331222236156478 66.33186712861061-2.1316282072803006e-14L511.3210658431053 444.9682872891426z"  horiz-adv-x="1024" />

    
    <glyph glyph-name="down-small" unicode="&#59406;" d="M512.6789341568947 323.0317127108574L291.0069319307804 544.7716083526611c-18.33122223615645 18.331222236156474-48.00064489245415 18.331222236156485-66.33186712861061 4.263256414560601e-14s-18.331222236156485-48.00064489245415-4.263256414560601e-14-66.33186712861061l254.87188249826417-254.87188249826443c18.33122223615645-18.331222236156474 48.00064489245415-18.331222236156485 66.33186712861061-4.263256414560601e-14L800.750696927309 478.3718478083608c18.331222236156474 18.33122223615645 18.331222236156485 48.00064489245415 4.263256414560601e-14 66.33186712861061s-48.00064489245415 18.331222236156485-66.33186712861061 4.263256414560601e-14L512.6789341568947 323.0317127108574z"  horiz-adv-x="1024" />

    
    <glyph glyph-name="calendar" unicode="&#58916;" d="M925.93076943-64.54615371H98.06923057a34.61538427 34.61538427 0 0 0-34.61538428 34.61538428V715.75384629a34.61538427 34.61538427 0 0 0 34.61538428 34.61538428h69.23076943a34.61538427 34.61538427 0 0 0 0-69.23076944h-34.61538427v-676.45384541h758.63076855V681.13846114h-34.61538428a34.61538427 34.61538427 0 0 0 0 69.23076943h69.23076943a34.61538427 34.61538427 0 0 0 34.61538429-34.61538428v-745.68461572a34.61538427 34.61538427 0 0 0-34.61538429-34.61538428zM304.30769258 834a34.61538427 34.61538427 0 0 1-34.61538516-34.61538427v-138.46153888a34.61538427 34.61538427 0 0 1 69.23076943 0v138.46153888a34.61538427 34.61538427 0 0 1-34.61538427 34.61538427zM719.69230742 834a34.61538427 34.61538427 0 0 1-34.61538427-34.61538427v-138.46153888a34.61538427 34.61538427 0 0 1 69.23076943 0v138.46153888a34.61538427 34.61538427 0 0 1-34.61538516 34.61538427zM581.16153886 750.36923057h-138.46153886a34.61538427 34.61538427 0 0 1 0-69.23076943h138.46153887a34.61538427 34.61538427 0 0 1 0 69.23076943zM304.30769258 495.04615371h-69.23076943a34.61538427 34.61538427 0 0 1 0-69.23076943h69.23076943a34.61538427 34.61538427 0 0 1 0 69.23076944zM304.23846114 356.58461573h-69.23076856a34.61538427 34.61538427 0 0 1 0-69.23076945h69.23076856a34.61538427 34.61538427 0 0 1-1e-8 69.23076945zM788.92307685 495.04615371h-69.23076943a34.61538427 34.61538427 0 0 1 0-69.23076943h69.23076943a34.61538427 34.61538427 0 0 1 0 69.23076944zM788.92307685 356.58461573h-69.23076943a34.61538427 34.61538427 0 0 1 0-69.23076945h69.23076943a34.61538427 34.61538427 0 0 1 0 69.23076945zM546.54615372 495.04615371h-69.23076944a34.61538427 34.61538427 0 0 1 0-69.23076943h69.23076943a34.61538427 34.61538427 0 0 1 0 69.23076944zM546.61538427 356.58461573H477.38461573a34.61538427 34.61538427 0 0 1 0-69.23076945h69.23076854a34.61538427 34.61538427 0 0 1 0 69.23076945zM304.23846114 218.12307684999996h-69.23076856a34.61538427 34.61538427 0 0 1 0-69.23076943h69.23076856a34.61538427 34.61538427 0 0 1-1e-8 69.23076943zM546.54615372 218.12307684999996h-69.23076944a34.61538427 34.61538427 0 0 1 0-69.23076943h69.23076943a34.61538427 34.61538427 0 0 1 0 69.23076943z"  horiz-adv-x="1024" />

    
    <glyph glyph-name="navigation" unicode="&#58909;" d="M512-128C229.248-128 0 101.24800000000005 0 384S229.248 896 512 896s512-229.248 512-512-229.248-512-512-512z m0 938.666667C276.352 810.666667 85.333333 619.648 85.333333 384s191.018667-426.666667 426.666667-426.666667 426.666667 191.018667 426.666667 426.666667S747.648 810.666667 512 810.666667z m-35.029333-462.250667l-306.602667 48.768 598.144 243.114667-242.944-597.589334-48.597333 305.706667z"  horiz-adv-x="1024" />

    
    <glyph glyph-name="backlog" unicode="&#58947;" d="M512 893.72444445C230.51377778 893.72444445 2.27555555 665.48622222 2.27555555 384s228.23822222-509.72444445 509.72444445-509.72444445 509.72444445 228.23822222 509.72444445 509.72444445S793.48622222 893.72444445 512 893.72444445z m0-955.73333334c-245.87377778 0-446.00888889 200.13511111-446.00888889 446.00888889s200.13511111 446.00888889 446.00888889 446.00888889 446.00888889-200.13511111 446.00888889-446.00888889-200.13511111-446.00888889-446.00888889-446.00888889zM732.95644445 415.85777778h-191.14666667V670.72c0 17.63555555-14.22222222 31.85777778-31.85777778 31.85777778s-31.85777778-14.22222222-31.85777778-31.85777778v-286.72c0-17.63555555 14.22222222-31.85777778 31.85777778-31.85777778h223.00444445c17.63555555 0 31.85777778 14.22222222 31.85777777 31.85777778s-14.22222222 31.85777778-31.85777777 31.85777778z"  horiz-adv-x="1024" />

    
    <glyph glyph-name="scales" unicode="&#59387;" d="M227.7603928 506.33380614c17.31805782 0 31.3959629 14.07790507 31.3959629 31.39596291v24.46873978c10.94948172 15.53038735 95.9755592 50.38996181 255.52515003 50.3899618 159.54959084 0 244.5756683-34.85957446 255.52515003-50.3899618V537.72976905c0-17.31805782 14.07790507-31.3959629 31.3959629-31.39596291 17.31805782 0 31.3959629 14.07790507 31.3959629 31.39596291v26.47986907c0 80.66863065-169.2700491 106.92504092-288.2618658 110.50038188v29.38483361c36.31205674 12.96061102 62.45673759 47.59672668 62.45673759 88.37795964 0 51.73071468-42.12198581 93.85270049-93.85270049 93.85270048s-93.85270049-42.12198581-93.85270048-93.85270048c0-40.78123295 26.14468085-75.41734861 62.45673758-88.37795964v-29.49656301c-118.99181669-4.02225859-285.46863066-30.50212766-285.46863066-110.50038188V537.72976905c-0.11172941-17.31805782 13.96617566-31.3959629 31.2842335-31.39596291Zm285.46863066 317.3115112c17.20632843 0 31.17250409-13.96617566 31.17250408-31.17250409 0-17.20632843-13.96617566-31.17250409-31.17250408-31.1725041-17.20632843 0-31.17250409 13.96617566-31.17250409 31.1725041 0 17.20632843 13.96617566 31.17250409 31.17250409 31.17250409ZM372.78516093 191.14515367c24.9156574 8.26797599 42.90409165 31.84288052 42.90409166 59.44004364v65.47343153c0 34.63611566-28.04408074 62.68019639-62.6801964 62.68019641H351.1096563l-109.27135842 99.55090015c-0.33518822 0.22345881-0.55864702 0.44691762-0.89383525 0.67037644-0.55864702 0.44691762-1.11729406 0.89383524-1.78767049 1.34075286l-1.67594108 1.00556465c-0.55864702 0.33518822-1.22902346 0.67037644-1.89939989 0.89383524-0.55864702 0.22345881-1.22902346 0.44691762-1.89939989 0.67037644-0.67037644 0.22345881-1.34075286 0.33518822-1.89939989 0.44691762-0.67037644 0.11172941-1.34075286 0.22345881-2.0111293 0.2234588-0.67037644 0.11172941-1.34075286 0.11172941-2.01112929 0.11172942-0.67037644 0-1.34075286 0-2.0111293-0.11172942-0.67037644 0-1.34075286-0.11172941-2.0111293-0.2234588-0.67037644-0.11172941-1.34075286-0.33518822-2.01112929-0.44691762-0.67037644-0.22345881-1.22902346-0.44691762-1.89939989-0.67037644-0.67037644-0.22345881-1.22902346-0.55864702-1.8993999-0.89383524l-1.67594108-1.00556465c-0.55864702-0.44691762-1.22902346-0.89383524-1.78767047-1.34075286-0.22345881-0.22345881-0.55864702-0.44691762-0.89383526-0.67037644l-109.27135842-99.55090015h-1.89939989c-34.63611566 0-62.68019639-28.04408074-62.6801964-62.68019641V250.58519731c0-27.70889252 17.98843426-51.17206764 42.90409165-59.44004364 23.46317512-57.09372614 79.66306601-97.31631206 145.13649755-97.31631206 65.47343153 0 121.56159302 40.33431534 145.02476813 97.31631206ZM227.7603928 434.60352792l61.22771412-55.75297327H166.42094926l61.33944354 55.75297327Zm0-278.09448991c-37.98799782 0-70.72471358 22.56933988-85.5847245 55.08259684h88.37795964c11.61985815 0 20.8933988 9.38527005 20.89339879 20.89339879 0 11.50812875-9.38527005 20.8933988-20.89339879 20.89339881H105.19323514c-0.89383524 0-1.78767049-0.11172941-2.68150573-0.22345882v62.90365521h250.49732678v-62.90365521c-0.89383524 0.11172941-1.89939989 0.33518822-2.79323513 0.33518822H300.83142389c-11.50812875 0-20.8933988-9.38527005-20.8933988-20.8933988 0-11.50812875 9.38527005-20.8933988 20.8933988-20.8933988h12.51369341c-14.86001091-32.51325696-47.48499727-55.19432624-85.5847245-55.19432624ZM924.95188216 378.73882525l-109.38308784 99.55090015c-0.33518822 0.22345881-0.55864702 0.44691762-0.89383524 0.67037644-0.55864702 0.44691762-1.11729406 0.89383524-1.78767048 1.34075286l-1.67594109 1.00556465c-0.67037644 0.33518822-1.22902346 0.67037644-1.89939988 0.89383524-0.67037644 0.22345881-1.22902346 0.44691762-1.89939989 0.67037644-0.67037644 0.22345881-1.22902346 0.33518822-1.8993999 0.44691762-0.67037644 0.11172941-1.34075286 0.22345881-2.01112929 0.2234588-0.67037644 0.11172941-1.34075286 0.11172941-2.0111293 0.11172942-0.67037644 0-1.34075286 0-2.01112929-0.11172942-0.67037644-0.11172941-1.34075286-0.11172941-2.0111293-0.2234588-0.67037644-0.11172941-1.22902346-0.33518822-1.89939989-0.44691762-0.67037644-0.22345881-1.34075286-0.44691762-1.89939988-0.67037644-0.67037644-0.22345881-1.22902346-0.55864702-1.7876705-0.89383524l-1.67594108-1.00556465c-0.67037644-0.44691762-1.22902346-0.89383524-1.78767048-1.34075286-0.33518822-0.22345881-0.55864702-0.44691762-0.89383525-0.67037644l-109.27135842-99.55090015h-4.69263503c-34.63611566 0-62.68019639-28.04408074-62.6801964-62.68019641V250.58519731c0-27.70889252 17.98843426-51.17206764 42.90409165-59.44004364 23.46317512-57.09372614 79.66306601-97.31631206 145.13649755-97.31631206 65.36170213 0 121.56159302 40.22258592 145.13649755 97.31631206 24.9156574 8.26797599 42.90409165 31.84288052 42.90409165 59.44004364v65.47343153c-0.33518822 34.30092745-27.93235134 62.12154938-62.00981997 62.68019641Zm-123.46099291 55.86470267l61.33944354-55.75297327H740.26317513l61.22771412 55.75297327Zm-2.79323513-278.09448991c-37.98799782 0-70.72471358 22.56933988-85.5847245 55.08259684h88.37795963c11.61985815 0 20.8933988 9.38527005 20.8933988 20.89339879 0 11.50812875-9.38527005 20.8933988-20.8933988 20.89339881H676.13049645c-0.89383524 0-1.78767049-0.11172941-2.68150573-0.22345882v62.90365521h250.49732679v-62.90365521c-0.89383524 0.11172941-1.89939989 0.33518822-2.79323513 0.33518822H871.76868522c-11.50812875 0-20.8933988-9.38527005-20.8933988-20.8933988 0-11.50812875 9.38527005-20.8933988 20.8933988-20.8933988h12.40196399c-14.86001091-32.51325696-47.48499727-55.19432624-85.47299509-55.19432624ZM635.01407529 51.81858519000002h-90.38908892V550.91383888c0 17.31805782-14.07790507 31.3959629-31.39596291 31.39596291-17.31805782 0-31.3959629-14.07790507-31.39596291-31.39596291v-499.09525369h-87.59585379c-34.63611566 0-62.68019639-28.04408074-62.6801964-62.68019639v-38.88183306c0-34.63611566 28.04408074-62.68019639 62.6801964-62.68019641h240.77686853c34.63611566 0 62.68019639 28.04408074 62.6801964 62.68019641V-10.86161119999997c0 34.52438626-28.04408074 62.68019639-62.6801964 62.68019639Zm0-101.67375885H394.23720676V-10.86161119999997h240.77686853v-38.99356246Z"  horiz-adv-x="1024" />

    
    <glyph glyph-name="position" unicode="&#59146;" d="M512 793.6C299.52 793.6 128 622.0799999999999 128 409.6s171.52-384 384-384 384 171.52 384 384S724.48 793.6 512 793.6z m25.6-716.8v128c0 15.36-10.24 25.6-25.6 25.6s-25.6-10.24-25.6-25.6v-128c-163.84 12.8-294.4 143.36-307.2 307.2h128c15.36 0 25.6 10.24 25.6 25.6s-10.24 25.6-25.6 25.6H179.2c12.8 163.84 143.36 294.4 307.2 304.64V614.4c0-15.36 10.24-25.6 25.6-25.6s25.6 10.24 25.6 25.6V739.84c163.84-12.8 294.4-143.36 307.2-304.64h-128c-15.36 0-25.6-10.24-25.6-25.6s10.24-25.6 25.6-25.6h128c-12.8-163.84-143.36-294.4-307.2-307.2z"  horiz-adv-x="1024" />

    
    <glyph glyph-name="up-box-o" unicode="&#59152;" d="M846.19098404 836.6990898399999H177.80901596C116.54066887 836.6990898399999 66.41202127 786.57044224 66.41202127 725.30209515v-668.38196808c0-61.26834707 50.12864761-111.39699467 111.39699469-111.39699469h668.38196808c61.26834707 0 111.39699467 50.12864761 111.39699469 111.39699469V725.30209515c0 61.26834707-50.12864761 111.39699467-111.39699469 111.39699469z m55.69849733-779.77896277c0-30.63417355-25.0643238-55.69849734-55.69849733-55.69849733H177.80901596c-30.63417355 0-55.69849734 25.0643238-55.69849733 55.69849733V725.30209515c0 30.63417355 25.0643238 55.69849734 55.69849733 55.69849733h668.38196808c30.63417355 0 55.69849734-25.0643238 55.69849733-55.69849733v-668.38196808zM534.27939893 522.00257987c-5.56984974 5.56984974-13.92462434 8.3547746-22.27939893 8.3547746-8.3547746 0-16.7095492-2.78492487-22.27939893-8.3547746l-247.85831317-250.64323804c-11.13969946-11.13969946-11.13969946-27.84924867 0-38.98894814 11.13969946-11.13969946 27.84924867-11.13969946 38.98894815 0l231.14876395 231.14876396 231.14876395-231.14876396c11.13969946-11.13969946 27.84924867-11.13969946 38.98894815 0 11.13969946 11.13969946 11.13969946 27.84924867 0 38.98894814l-247.85831317 250.64323804z"  horiz-adv-x="1024" />

    
    <glyph glyph-name="refund" unicode="&#59876;" d="M868.15999967 745.493333c-94.07999967 94.07999967-221.76 147.84000033-356.15999967 147.84000033s-262.08-53.75999967-356.15999967-147.84000033c-94.07999967-94.07999967-147.84000033-221.76-147.84000033-356.15999967s53.75999967-262.08 147.84000033-356.15999967c94.07999967-94.07999967 221.76-147.84000033 356.15999967-147.84000033s262.08 53.75999967 356.15999967 147.84000033c194.87999967 194.87999967 194.87999967 517.43999967 0 712.31999934z m-124.31999967-349.43999934c0-3.35999967 0-6.72000033-3.35999967-13.44000066-3.35999967-10.08-10.08-16.80000033-23.52000066-16.79999934h-204.95999967l67.20000033-67.20000033c10.08-10.08 10.08-23.51999967 0-33.59999967-3.35999967-3.35999967-10.08-6.72000033-16.80000033-6.72000033s-13.43999967 3.35999967-16.80000033 6.72000033l-107.51999934 107.51999934c-3.35999967 3.35999967-6.72000033 10.08-6.72000033 16.80000033s3.35999967 13.43999967 6.72000033 16.80000033l107.51999934 107.51999934c10.08 10.08 23.51999967 10.08 33.60000066 0 10.08-10.08 10.08-23.51999967 0-33.59999967l-67.20000033-67.20000033h184.79999967v114.24000066c0 26.88000033-23.51999967 50.4-50.4 50.4h-272.16c-26.88000033 0-50.4-23.51999967-50.4-50.4v-272.16c0-26.88000033 23.51999967-50.4 50.4-50.4h272.16c26.88000033 0 50.4 23.51999967 50.4 50.4v33.59999967c0 13.43999967 10.08 23.51999967 23.52000066 23.51999967s23.51999967-10.08 23.51999967-23.51999967v-33.59999967c0-53.75999967-43.67999967-97.44000033-97.44000033-97.44000033h-272.16c-53.75999967 0-97.44000033 43.67999967-97.43999934 97.44000033v272.16c0 53.75999967 43.67999967 97.44000033 97.43999934 97.43999934h272.16c53.75999967 0 97.44000033-43.67999967 97.44000033-97.43999934v-131.04z"  horiz-adv-x="1024" />

    
    <glyph glyph-name="waiting" unicode="&#58974;" d="M563.03557 303.537187a34.280753 34.280753 0 1 0-68.561506 0V572.992071a34.303433 34.303433 0 0 0 68.561506 0v-269.454884zM528.754817 269.22241399999996a34.286423 34.286423 0 0 0 0 68.533156h256.844829a34.286423 34.286423 0 0 0 0-68.533156H528.754817zM913.423876 734.348616l-55.804031-74.067066a389.987508 389.987508 0 0 0 112.957519-274.625913c0-215.833798-175.559867-391.359646-391.359645-391.359646-215.839468 0-391.370986 175.559867-391.370986 391.359646 0 215.811118 175.559867 391.365316 391.370986 391.365315 65.822901 0 127.80722-16.511008 182.318494-45.348571l60.203942 71.72536a479.868173 479.868173 0 0 1-242.522436 65.856921c-266.693599 0-483.604695-216.945116-483.604696-483.604695S312.55247-97.94905900000003 579.212049-97.94905900000003c266.653909 0 483.599025 216.979136 483.599025 483.604696-0.03402 137.037962-57.550388 260.638051-149.387198 348.692979z"  horiz-adv-x="1133" />

    
    <glyph glyph-name="sorting" unicode="&#58976;" d="M913.423876 728.837386l-55.804031-74.067065a389.987508 389.987508 0 0 0 112.957519-274.625913c0-215.833798-175.559867-391.365316-391.359645-391.365316-215.839468 0-391.370986 175.559867-391.370986 391.365316s175.559867 391.365316 391.370986 391.365315c65.822901 0 127.80722-16.511008 182.318494-45.354241l60.203942 71.73103a479.783123 479.783123 0 0 1-242.528106 65.868261c-266.693599 0-483.604695-216.945116-483.604696-483.604695s216.945116-483.604695 483.604696-483.604696c266.653909 0 483.599025 216.979136 483.599025 483.604696-0.03402 137.032292-57.550388 260.632381-149.387198 348.687308zM435.625249 380.18409699999995c-0.765449-34.808062-29.603012-62.392558-64.405404-61.621439a63.027597 63.027597 0 0 0-61.62144 61.621439c0.771118 34.802392 29.603012 62.386888 64.405405 61.61577 33.719424-0.742769 60.878671-27.902016 61.621439-61.61577z m206.886556 0c-0.765449-34.808062-29.603012-62.392558-64.405404-61.621439-33.713754 0.742769-60.873001 27.902016-61.62144 61.621439 0.771118 34.802392 29.608682 62.386888 64.411074 61.61577 33.713754-0.742769 60.878671-27.902016 61.61577-61.61577z m206.245847 0c-0.765449-34.808062-29.603012-62.392558-64.405404-61.621439a63.021927 63.021927 0 0 0-61.61577 61.621439c0.765449 34.802392 29.603012 62.386888 64.399735 61.61577 33.719424-0.742769 60.884341-27.902016 61.621439-61.61577z"  horiz-adv-x="1133" />

    
    <glyph glyph-name="delivery" unicode="&#58978;" d="M866.378877 715.509801l-53.060577-70.421634a370.754431 370.754431 0 0 0 107.395557-261.107067c0-205.211481-166.914554-372.099035-372.088235-372.099036-205.216881 0-372.099035 166.914554-372.099036 372.099036 0 205.189881 166.919954 372.099035 372.099036 372.099035 62.586208 0 121.511203-15.692452 173.356775-43.108343l57.23479 68.191427a456.220515 456.220515 0 0 1-230.586165 62.613208c-253.568642 0-459.800727-206.264485-459.800727-459.795327 0-253.525442 206.259085-459.795327 459.795327-459.795327 253.525442 0 459.789927 206.302285 459.789926 459.800727-0.0054 130.280833-54.723782 247.796023-142.036671 331.523301zM464.012741 483.589831h-110.538367c-14.644849 0-21.767472-6.685222-21.767473-20.439068v-6.339621c0-5.567418 2.106007-18.527462 21.605472-18.527462h110.856968c12.457841 0 20.827869 7.646425 20.827869 19.018863v5.578219c0.0054 12.382241-8.429428 20.709069-20.984469 20.709069z m14.288447 55.155783v10.751436c0 8.91543-9.676832 17.026257-20.298667 17.026256H309.674828c-12.225641 0-20.757669-7.624825-20.757669-18.532862v-5.810419c0-13.602645 3.742212-20.96287 23.506278-20.962869h146.399886c6.10202 0 19.477865 4.417215 19.477865 17.528458z m-14.040047-130.664234H399.061325c-13.359644 0-21.648672-7.495225-21.648672-19.569665v-5.583619c0-13.381244 8.170227-20.163667 24.278481-20.163667h64.352013c11.345438 0 18.964863 8.505028 18.964863 21.162671v3.380411c-0.0054 12.03664-8.726429 20.773869-20.746869 20.773869z m117.898592-14.747449h71.150636c15.08225 0 16.707655 9.14763 16.707656 13.078843v7.192824c0 8.796629-5.416218 14.266847-14.142647 14.266848h-47.763159c-2.327408 0-5.227217 0-5.643019 0.054-0.162001 0.264601-0.691202 1.555205-0.691202 6.933623v43.853545c0 6.377421-6.652822 14.466648-14.142647 14.466649h-6.04262c-6.928223 0-14.342448-5.90762-14.342448-14.715049v-68.828629c-0.0054-9.601232 6.12362-16.302654 14.90945-16.302654zM794.839439 404.94397l-51.28397 26.600488c-5.670019 2.94301-6.733822 4.098614-8.775029 9.498631l-39.771132 104.997949c-6.15062 16.210854-9.860433 20.325667-29.667699 20.325668l-144.979681-0.577802c-7.749026-0.0324-16.788656-4.881616-16.788656-18.446462l0.0108-280.763132c0-18.867663 14.553048-28.744295 28.927896-28.744295h21.961873c9.752432-37.891926 43.588945-64.173813 83.014476-64.173813 39.441731 0 73.278243 26.287287 83.019875 64.184613l51.575572 0.0108c16.626655 0 33.420711 10.243834 33.442311 33.17231l0.0864 117.147989c0.0216 7.603225-3.396611 12.933043-10.773036 16.767056z m-245.322814 112.001771c0 2.489408 0.0864 2.89981 3.14821 2.89981h93.058509c10.216834 0 10.216834 0 12.312041-5.502618l38.356327-100.634734c2.91061-7.641025 10.071033-14.585448 15.649252-17.501458l44.523148-23.203878c1.425605-0.745202 2.770209-1.452605 2.98621-1.690205 0.108-0.275401 0.108-1.366205 0.108-2.343608v-81.34587c0-1.323004 0-2.97541-0.1512-3.294011-0.810003-0.604802-5.92922-0.604802-8.100027-0.604802h-31.654905c-10.708236 36.27732-44.231547 61.419804-82.242273 61.419804-37.983726 0-71.512437-25.142483-82.236873-61.419804h-2.052007c-2.187007 0-3.245411 0.135-3.704412 0.253801V516.945741z m87.987892-299.938595c-23.376678 0-42.400941 19.013463-42.400941 42.39014s19.018863 42.400941 42.400941 42.400941 42.400941-19.018863 42.40094-42.400941c-0.0054-23.371278-19.024263-42.390141-42.40094-42.39014z"  horiz-adv-x="1080" />

    
    </font>
</defs>
</svg>
